<?xml version="1.0" encoding="UTF-8"?>
<svg xmlns="http://www.w3.org/2000/svg" xmlns:xlink="http://www.w3.org/1999/xlink" viewBox="0 0 14.52 12.9">
  <defs>
    <style>
      .cls-1 {
        fill: #ff96c1;
      }

      .cls-2 {
        fill: #faedf8;
      }

      .cls-3 {
        isolation: isolate;
      }

      .cls-4 {
        fill: url(#linear-gradient);
        mix-blend-mode: overlay;
      }

      .cls-5 {
        fill: #4f3e4a;
      }
    </style>
    <linearGradient id="linear-gradient" x1="7.04" y1="1.4" x2="7.59" y2="8.75" gradientUnits="userSpaceOnUse">
      <stop offset="0" stop-color="#fff"/>
      <stop offset=".01" stop-color="#fff" stop-opacity=".98"/>
      <stop offset=".11" stop-color="#fff" stop-opacity=".75"/>
      <stop offset=".21" stop-color="#fff" stop-opacity=".55"/>
      <stop offset=".31" stop-color="#fff" stop-opacity=".38"/>
      <stop offset=".41" stop-color="#fff" stop-opacity=".24"/>
      <stop offset=".52" stop-color="#fff" stop-opacity=".14"/>
      <stop offset=".62" stop-color="#fff" stop-opacity=".06"/>
      <stop offset=".72" stop-color="#fff" stop-opacity=".02"/>
      <stop offset=".83" stop-color="#fff" stop-opacity="0"/>
    </linearGradient>
  </defs>
  <g class="cls-3">
    <g id="Layer_2" data-name="Layer 2">
      <g id="Layer_1-2" data-name="Layer 1">
        <g>
          <g>
            <g>
              <path class="cls-2" d="M7.26,12.2c-.11,0-.21-.02-.31-.07h0c-.65-.36-6.12-3.51-6.25-7.51-.04-1.1.32-2.07,1.02-2.79.69-.72,1.68-1.13,2.7-1.13,1.19,0,2.2.53,2.84,1.43.64-.9,1.65-1.43,2.84-1.43,1.02,0,2,.41,2.7,1.13.71.73,1.06,1.69,1.02,2.79-.13,4-5.6,7.15-6.22,7.49-.11.06-.22.09-.34.09Z"/>
              <path class="cls-5" d="M10.1,1.39c1.54,0,3.09,1.15,3.03,3.2-.12,3.75-5.84,6.9-5.87,6.91h0s0,0,0,0h0s0,0,0,0c-.02-.01-5.74-3.16-5.87-6.91-.07-2.05,1.49-3.2,3.03-3.2,1.28,0,2.54.8,2.84,2.53.3-1.74,1.56-2.53,2.84-2.53M10.1,0c-1.11,0-2.09.4-2.84,1.09C6.51.4,5.53,0,4.42,0c-1.21,0-2.37.49-3.2,1.34C.39,2.2-.04,3.37,0,4.64c.14,4.36,5.75,7.62,6.55,8.06.22.13.46.19.71.19.08,0,.15,0,.22-.02.17-.03.33-.08.48-.17,0,0,0,0,0,0,.81-.45,6.41-3.71,6.55-8.06.04-1.27-.39-2.45-1.22-3.3-.83-.85-1.99-1.34-3.2-1.34h0Z"/>
            </g>
            <g>
              <path class="cls-1" d="M7.26,11.74s-.07,0-.1-.02h0c-.25-.14-5.87-3.3-6-7.11-.03-.97.28-1.82.89-2.46.61-.63,1.47-.99,2.37-.99,1.02,0,2.27.52,2.84,1.92.57-1.4,1.82-1.92,2.84-1.92.9,0,1.76.36,2.37.99.62.64.92,1.49.89,2.46-.12,3.81-5.75,6.97-5.98,7.1-.04.02-.08.03-.12.03Z"/>
              <path class="cls-2" d="M10.1,1.39c1.54,0,3.09,1.15,3.03,3.2-.12,3.75-5.84,6.9-5.87,6.91h0s0,0,0,0h0s0,0,0,0c-.02-.01-5.74-3.16-5.87-6.91-.07-2.05,1.49-3.2,3.03-3.2,1.28,0,2.54.8,2.84,2.53.3-1.74,1.56-2.53,2.84-2.53M10.1.93c-1.23,0-2.26.61-2.84,1.63-.58-1.02-1.61-1.63-2.84-1.63-.96,0-1.88.39-2.53,1.06-.66.68-.99,1.59-.96,2.62.13,3.91,5.65,7.04,6.09,7.29h0c.07.05.16.07.24.07.02,0,.05,0,.07,0,.06,0,.11-.03.16-.06,0,0,0,0,0,0,.44-.25,5.96-3.38,6.09-7.29.03-1.04-.3-1.94-.96-2.62-.65-.67-1.57-1.06-2.53-1.06h0Z"/>
            </g>
          </g>
          <path class="cls-4" d="M7.27,4.53C6.01-.28.87,1.96,1.78,5.32c.85,3.1,5.27,5.18,5.48,5.28h0s0,0,0,0c0,0,0,0,0,0h0c.21-.11,4.63-2.19,5.48-5.29.92-3.36-4.23-5.6-5.49-.79Z"/>
        </g>
      </g>
    </g>
  </g>
</svg>