<?xml version="1.0" encoding="UTF-8"?>
<svg id="Layer_2" data-name="Layer 2" xmlns="http://www.w3.org/2000/svg" xmlns:xlink="http://www.w3.org/1999/xlink" viewBox="0 0 316.22 43.43">
  <defs>
    <style>
      .cls-1 {
        fill: none;
      }

      .cls-2 {
        fill: #fff;
      }

      .cls-3 {
        opacity: .26;
      }

      .cls-4 {
        clip-path: url(#clippath);
      }
    </style>
    <clipPath id="clippath">
      <rect class="cls-1" width="316.22" height="43.43" rx="11.33" ry="11.33"/>
    </clipPath>
  </defs>
  <g id="Layer_1-2" data-name="Layer 1">
    <g class="cls-3">
      <g class="cls-4">
        <g>
          <g>
            <path class="cls-2" d="M7.13,2.23c.05-1.69-2.34-2.03-2.64-.3-.3-1.73-2.7-1.39-2.64.3.05,1.69,2.63,3.11,2.64,3.11h0s0,0,0,0h0s0,0,0,0c.01,0,2.59-1.42,2.64-3.11Z"/>
            <path class="cls-2" d="M17.45,2.23c.05-1.69-2.34-2.03-2.64-.3-.3-1.73-2.7-1.39-2.64.3.05,1.69,2.63,3.11,2.64,3.11h0s0,0,0,0h0s0,0,0,0c.01,0,2.59-1.42,2.64-3.11Z"/>
            <path class="cls-2" d="M27.77,2.23c.05-1.69-2.34-2.03-2.64-.3-.3-1.73-2.7-1.39-2.64.3.05,1.69,2.63,3.11,2.64,3.11h0s0,0,0,0h0s0,0,0,0c.01,0,2.59-1.42,2.64-3.11Z"/>
            <path class="cls-2" d="M38.09,2.23c.05-1.69-2.34-2.03-2.64-.3-.3-1.73-2.7-1.39-2.64.3.05,1.69,2.63,3.11,2.64,3.11h0s0,0,0,0h0s0,0,0,0c.01,0,2.59-1.42,2.64-3.11Z"/>
            <path class="cls-2" d="M48.41,2.23c.05-1.69-2.34-2.03-2.64-.3-.3-1.73-2.7-1.39-2.64.3.05,1.69,2.63,3.11,2.64,3.11h0s0,0,0,0h0s0,0,0,0c.01,0,2.59-1.42,2.64-3.11Z"/>
            <path class="cls-2" d="M58.72,2.23c.05-1.69-2.34-2.03-2.64-.3-.3-1.73-2.7-1.39-2.64.3.05,1.69,2.63,3.11,2.64,3.11h0s0,0,0,0h0s0,0,0,0c.01,0,2.59-1.42,2.64-3.11Z"/>
            <path class="cls-2" d="M69.04,2.23c.05-1.69-2.34-2.03-2.64-.3-.3-1.73-2.7-1.39-2.64.3.05,1.69,2.63,3.11,2.64,3.11h0s0,0,0,0h0s0,0,0,0c.01,0,2.59-1.42,2.64-3.11Z"/>
            <path class="cls-2" d="M79.36,2.23c.05-1.69-2.34-2.03-2.64-.3-.3-1.73-2.7-1.39-2.64.3.05,1.69,2.63,3.11,2.64,3.11h0s0,0,0,0h0s0,0,0,0c.01,0,2.59-1.42,2.64-3.11Z"/>
            <path class="cls-2" d="M89.68,2.23c.05-1.69-2.34-2.03-2.64-.3-.3-1.73-2.7-1.39-2.64.3.05,1.69,2.63,3.11,2.64,3.11h0s0,0,0,0h0s0,0,0,0c.01,0,2.59-1.42,2.64-3.11Z"/>
            <path class="cls-2" d="M100,2.23c.05-1.69-2.34-2.03-2.64-.3-.3-1.73-2.7-1.39-2.64.3.05,1.69,2.63,3.11,2.64,3.11h0s0,0,0,0h0s0,0,0,0c.01,0,2.59-1.42,2.64-3.11Z"/>
            <path class="cls-2" d="M110.32,2.23c.05-1.69-2.34-2.03-2.64-.3-.3-1.73-2.7-1.39-2.64.3.05,1.69,2.63,3.11,2.64,3.11h0s0,0,0,0h0s0,0,0,0c.01,0,2.59-1.42,2.64-3.11Z"/>
            <path class="cls-2" d="M120.64,2.23c.05-1.69-2.34-2.03-2.64-.3-.3-1.73-2.7-1.39-2.64.3.05,1.69,2.63,3.11,2.64,3.11h0s0,0,0,0h0s0,0,0,0c.01,0,2.59-1.42,2.64-3.11Z"/>
            <path class="cls-2" d="M130.96,2.23c.05-1.69-2.34-2.03-2.64-.3-.3-1.73-2.7-1.39-2.64.3.05,1.69,2.63,3.11,2.64,3.11h0s0,0,0,0h0s0,0,0,0c.01,0,2.59-1.42,2.64-3.11Z"/>
            <path class="cls-2" d="M141.28,2.23c.05-1.69-2.34-2.03-2.64-.3-.3-1.73-2.7-1.39-2.64.3.05,1.69,2.63,3.11,2.64,3.11h0s0,0,0,0h0s0,0,0,0c.01,0,2.59-1.42,2.64-3.11Z"/>
            <path class="cls-2" d="M151.6,2.23c.05-1.69-2.34-2.03-2.64-.3-.3-1.73-2.7-1.39-2.64.3.05,1.69,2.63,3.11,2.64,3.11h0s0,0,0,0h0s0,0,0,0c.01,0,2.59-1.42,2.64-3.11Z"/>
            <path class="cls-2" d="M161.92,2.23c.05-1.69-2.34-2.03-2.64-.3-.3-1.73-2.7-1.39-2.64.3.05,1.69,2.63,3.11,2.64,3.11h0s0,0,0,0h0s0,0,0,0c.01,0,2.59-1.42,2.64-3.11Z"/>
            <path class="cls-2" d="M172.23,2.23c.05-1.69-2.34-2.03-2.64-.3-.3-1.73-2.7-1.39-2.64.3.05,1.69,2.63,3.11,2.64,3.11h0s0,0,0,0h0s0,0,0,0c.01,0,2.59-1.42,2.64-3.11Z"/>
            <path class="cls-2" d="M182.55,2.23c.05-1.69-2.34-2.03-2.64-.3-.3-1.73-2.7-1.39-2.64.3.05,1.69,2.63,3.11,2.64,3.11h0s0,0,0,0h0s0,0,0,0c.01,0,2.59-1.42,2.64-3.11Z"/>
            <path class="cls-2" d="M192.87,2.23c.05-1.69-2.34-2.03-2.64-.3-.3-1.73-2.7-1.39-2.64.3.05,1.69,2.63,3.11,2.64,3.11h0s0,0,0,0h0s0,0,0,0c.01,0,2.59-1.42,2.64-3.11Z"/>
            <path class="cls-2" d="M203.19,2.23c.05-1.69-2.34-2.03-2.64-.3-.3-1.73-2.7-1.39-2.64.3.05,1.69,2.63,3.11,2.64,3.11h0s0,0,0,0h0s0,0,0,0c.01,0,2.59-1.42,2.64-3.11Z"/>
            <path class="cls-2" d="M213.51,2.23c.05-1.69-2.34-2.03-2.64-.3-.3-1.73-2.7-1.39-2.64.3.05,1.69,2.63,3.11,2.64,3.11h0s0,0,0,0h0s0,0,0,0c.01,0,2.59-1.42,2.64-3.11Z"/>
            <path class="cls-2" d="M223.83,2.23c.05-1.69-2.34-2.03-2.64-.3-.3-1.73-2.7-1.39-2.64.3.05,1.69,2.63,3.11,2.64,3.11h0s0,0,0,0h0s0,0,0,0c.01,0,2.59-1.42,2.64-3.11Z"/>
            <path class="cls-2" d="M234.15,2.23c.05-1.69-2.34-2.03-2.64-.3-.3-1.73-2.7-1.39-2.64.3.05,1.69,2.63,3.11,2.64,3.11h0s0,0,0,0h0s0,0,0,0c.01,0,2.59-1.42,2.64-3.11Z"/>
            <path class="cls-2" d="M244.47,2.23c.05-1.69-2.34-2.03-2.64-.3-.3-1.73-2.7-1.39-2.64.3.05,1.69,2.63,3.11,2.64,3.11h0s0,0,0,0h0s0,0,0,0c.01,0,2.59-1.42,2.64-3.11Z"/>
            <path class="cls-2" d="M254.79,2.23c.05-1.69-2.34-2.03-2.64-.3-.3-1.73-2.7-1.39-2.64.3.05,1.69,2.63,3.11,2.64,3.11h0s0,0,0,0h0s0,0,0,0c.01,0,2.59-1.42,2.64-3.11Z"/>
            <path class="cls-2" d="M265.11,2.23c.05-1.69-2.34-2.03-2.64-.3-.3-1.73-2.7-1.39-2.64.3.05,1.69,2.63,3.11,2.64,3.11h0s0,0,0,0h0s0,0,0,0c.01,0,2.59-1.42,2.64-3.11Z"/>
            <path class="cls-2" d="M275.42,2.23c.05-1.69-2.34-2.03-2.64-.3-.3-1.73-2.7-1.39-2.64.3.05,1.69,2.63,3.11,2.64,3.11h0s0,0,0,0h0s0,0,0,0c.01,0,2.59-1.42,2.64-3.11Z"/>
            <path class="cls-2" d="M285.73,2.23c.05-1.69-2.34-2.03-2.64-.3-.3-1.73-2.7-1.39-2.64.3.05,1.69,2.63,3.11,2.64,3.11h0s0,0,0,0h0s0,0,0,0c.01,0,2.59-1.42,2.64-3.11Z"/>
            <path class="cls-2" d="M296.05,2.23c.05-1.69-2.34-2.03-2.64-.3-.3-1.73-2.7-1.39-2.64.3.05,1.69,2.63,3.11,2.64,3.11h0s0,0,0,0h0s0,0,0,0c.01,0,2.59-1.42,2.64-3.11Z"/>
            <path class="cls-2" d="M306.37,2.23c.05-1.69-2.34-2.03-2.64-.3-.3-1.73-2.7-1.39-2.64.3.05,1.69,2.63,3.11,2.64,3.11h0s0,0,0,0h0s0,0,0,0c.01,0,2.59-1.42,2.64-3.11Z"/>
            <path class="cls-2" d="M316.69,2.23c.05-1.69-2.34-2.03-2.64-.3-.3-1.73-2.7-1.39-2.64.3.05,1.69,2.63,3.11,2.64,3.11h0s0,0,0,0h0s0,0,0,0c.01,0,2.59-1.42,2.64-3.11Z"/>
          </g>
          <g>
            <path class="cls-2" d="M1.9,8.13c.05-1.69-2.34-2.03-2.64-.3-.3-1.73-2.7-1.39-2.64.3.05,1.69,2.63,3.11,2.64,3.11h0s0,0,0,0h0s0,0,0,0c.01,0,2.59-1.42,2.64-3.11Z"/>
            <path class="cls-2" d="M12.21,8.13c.05-1.69-2.34-2.03-2.64-.3-.3-1.73-2.7-1.39-2.64.3.05,1.69,2.63,3.11,2.64,3.11h0s0,0,0,0h0s0,0,0,0c.01,0,2.59-1.42,2.64-3.11Z"/>
            <path class="cls-2" d="M22.53,8.13c.05-1.69-2.34-2.03-2.64-.3-.3-1.73-2.7-1.39-2.64.3.05,1.69,2.63,3.11,2.64,3.11h0s0,0,0,0h0s0,0,0,0c.01,0,2.59-1.42,2.64-3.11Z"/>
            <path class="cls-2" d="M32.85,8.13c.05-1.69-2.34-2.03-2.64-.3-.3-1.73-2.7-1.39-2.64.3.05,1.69,2.63,3.11,2.64,3.11h0s0,0,0,0h0s0,0,0,0c.01,0,2.59-1.42,2.64-3.11Z"/>
            <path class="cls-2" d="M43.17,8.13c.05-1.69-2.34-2.03-2.64-.3-.3-1.73-2.7-1.39-2.64.3.05,1.69,2.63,3.11,2.64,3.11h0s0,0,0,0h0s0,0,0,0c.01,0,2.59-1.42,2.64-3.11Z"/>
            <path class="cls-2" d="M53.49,8.13c.05-1.69-2.34-2.03-2.64-.3-.3-1.73-2.7-1.39-2.64.3.05,1.69,2.63,3.11,2.64,3.11h0s0,0,0,0h0s0,0,0,0c.01,0,2.59-1.42,2.64-3.11Z"/>
            <path class="cls-2" d="M63.81,8.13c.05-1.69-2.34-2.03-2.64-.3-.3-1.73-2.7-1.39-2.64.3.05,1.69,2.63,3.11,2.64,3.11h0s0,0,0,0h0s0,0,0,0c.01,0,2.59-1.42,2.64-3.11Z"/>
            <path class="cls-2" d="M74.13,8.13c.05-1.69-2.34-2.03-2.64-.3-.3-1.73-2.7-1.39-2.64.3.05,1.69,2.63,3.11,2.64,3.11h0s0,0,0,0h0s0,0,0,0c.01,0,2.59-1.42,2.64-3.11Z"/>
            <path class="cls-2" d="M84.45,8.13c.05-1.69-2.34-2.03-2.64-.3-.3-1.73-2.7-1.39-2.64.3.05,1.69,2.63,3.11,2.64,3.11h0s0,0,0,0h0s0,0,0,0c.01,0,2.59-1.42,2.64-3.11Z"/>
            <path class="cls-2" d="M94.77,8.13c.05-1.69-2.34-2.03-2.64-.3-.3-1.73-2.7-1.39-2.64.3.05,1.69,2.63,3.11,2.64,3.11h0s0,0,0,0h0s0,0,0,0c.01,0,2.59-1.42,2.64-3.11Z"/>
            <path class="cls-2" d="M105.09,8.13c.05-1.69-2.34-2.03-2.64-.3-.3-1.73-2.7-1.39-2.64.3.05,1.69,2.63,3.11,2.64,3.11h0s0,0,0,0h0s0,0,0,0c.01,0,2.59-1.42,2.64-3.11Z"/>
            <path class="cls-2" d="M115.41,8.13c.05-1.69-2.34-2.03-2.64-.3-.3-1.73-2.7-1.39-2.64.3.05,1.69,2.63,3.11,2.64,3.11h0s0,0,0,0h0s0,0,0,0c.01,0,2.59-1.42,2.64-3.11Z"/>
            <path class="cls-2" d="M125.72,8.13c.05-1.69-2.34-2.03-2.64-.3-.3-1.73-2.7-1.39-2.64.3.05,1.69,2.63,3.11,2.64,3.11h0s0,0,0,0h0s0,0,0,0c.01,0,2.59-1.42,2.64-3.11Z"/>
            <path class="cls-2" d="M136.04,8.13c.05-1.69-2.34-2.03-2.64-.3-.3-1.73-2.7-1.39-2.64.3.05,1.69,2.63,3.11,2.64,3.11h0s0,0,0,0h0s0,0,0,0c.01,0,2.59-1.42,2.64-3.11Z"/>
            <path class="cls-2" d="M146.36,8.13c.05-1.69-2.34-2.03-2.64-.3-.3-1.73-2.7-1.39-2.64.3.05,1.69,2.63,3.11,2.64,3.11h0s0,0,0,0h0s0,0,0,0c.01,0,2.59-1.42,2.64-3.11Z"/>
            <path class="cls-2" d="M156.68,8.13c.05-1.69-2.34-2.03-2.64-.3-.3-1.73-2.7-1.39-2.64.3.05,1.69,2.63,3.11,2.64,3.11h0s0,0,0,0h0s0,0,0,0c.01,0,2.59-1.42,2.64-3.11Z"/>
            <path class="cls-2" d="M167,8.13c.05-1.69-2.34-2.03-2.64-.3-.3-1.73-2.7-1.39-2.64.3.05,1.69,2.63,3.11,2.64,3.11h0s0,0,0,0h0s0,0,0,0c.01,0,2.59-1.42,2.64-3.11Z"/>
            <path class="cls-2" d="M177.32,8.13c.05-1.69-2.34-2.03-2.64-.3-.3-1.73-2.7-1.39-2.64.3.05,1.69,2.63,3.11,2.64,3.11h0s0,0,0,0h0s0,0,0,0c.01,0,2.59-1.42,2.64-3.11Z"/>
            <path class="cls-2" d="M187.64,8.13c.05-1.69-2.34-2.03-2.64-.3-.3-1.73-2.7-1.39-2.64.3.05,1.69,2.63,3.11,2.64,3.11h0s0,0,0,0h0s0,0,0,0c.01,0,2.59-1.42,2.64-3.11Z"/>
            <path class="cls-2" d="M197.96,8.13c.05-1.69-2.34-2.03-2.64-.3-.3-1.73-2.7-1.39-2.64.3.05,1.69,2.63,3.11,2.64,3.11h0s0,0,0,0h0s0,0,0,0c.01,0,2.59-1.42,2.64-3.11Z"/>
            <path class="cls-2" d="M208.28,8.13c.05-1.69-2.34-2.03-2.64-.3-.3-1.73-2.7-1.39-2.64.3.05,1.69,2.63,3.11,2.64,3.11h0s0,0,0,0h0s0,0,0,0c.01,0,2.59-1.42,2.64-3.11Z"/>
            <path class="cls-2" d="M218.6,8.13c.05-1.69-2.34-2.03-2.64-.3-.3-1.73-2.7-1.39-2.64.3.05,1.69,2.63,3.11,2.64,3.11h0s0,0,0,0h0s0,0,0,0c.01,0,2.59-1.42,2.64-3.11Z"/>
            <path class="cls-2" d="M228.92,8.13c.05-1.69-2.34-2.03-2.64-.3-.3-1.73-2.7-1.39-2.64.3.05,1.69,2.63,3.11,2.64,3.11h0s0,0,0,0h0s0,0,0,0c.01,0,2.59-1.42,2.64-3.11Z"/>
            <path class="cls-2" d="M239.24,8.13c.05-1.69-2.34-2.03-2.64-.3-.3-1.73-2.7-1.39-2.64.3.05,1.69,2.63,3.11,2.64,3.11h0s0,0,0,0h0s0,0,0,0c.01,0,2.59-1.42,2.64-3.11Z"/>
            <path class="cls-2" d="M249.55,8.13c.05-1.69-2.34-2.03-2.64-.3-.3-1.73-2.7-1.39-2.64.3.05,1.69,2.63,3.11,2.64,3.11h0s0,0,0,0h0s0,0,0,0c.01,0,2.59-1.42,2.64-3.11Z"/>
            <path class="cls-2" d="M259.87,8.13c.05-1.69-2.34-2.03-2.64-.3-.3-1.73-2.7-1.39-2.64.3.05,1.69,2.63,3.11,2.64,3.11h0s0,0,0,0h0s0,0,0,0c.01,0,2.59-1.42,2.64-3.11Z"/>
            <path class="cls-2" d="M270.18,8.13c.05-1.69-2.34-2.03-2.64-.3-.3-1.73-2.7-1.39-2.64.3.05,1.69,2.63,3.11,2.64,3.11h0s0,0,0,0h0s0,0,0,0c.01,0,2.59-1.42,2.64-3.11Z"/>
            <path class="cls-2" d="M280.5,8.13c.05-1.69-2.34-2.03-2.64-.3-.3-1.73-2.7-1.39-2.64.3.05,1.69,2.63,3.11,2.64,3.11h0s0,0,0,0h0s0,0,0,0c.01,0,2.59-1.42,2.64-3.11Z"/>
            <path class="cls-2" d="M290.82,8.13c.05-1.69-2.34-2.03-2.64-.3-.3-1.73-2.7-1.39-2.64.3.05,1.69,2.63,3.11,2.64,3.11h0s0,0,0,0h0s0,0,0,0c.01,0,2.59-1.42,2.64-3.11Z"/>
            <path class="cls-2" d="M301.14,8.13c.05-1.69-2.34-2.03-2.64-.3-.3-1.73-2.7-1.39-2.64.3.05,1.69,2.63,3.11,2.64,3.11h0s0,0,0,0h0s0,0,0,0c.01,0,2.59-1.42,2.64-3.11Z"/>
            <path class="cls-2" d="M311.46,8.13c.05-1.69-2.34-2.03-2.64-.3-.3-1.73-2.7-1.39-2.64.3.05,1.69,2.63,3.11,2.64,3.11h0s0,0,0,0h0s0,0,0,0c.01,0,2.59-1.42,2.64-3.11Z"/>
          </g>
          <g>
            <path class="cls-2" d="M7.13,14.42c.05-1.69-2.34-2.03-2.64-.3-.3-1.73-2.7-1.39-2.64.3.05,1.69,2.63,3.11,2.64,3.11h0s0,0,0,0h0s0,0,0,0c.01,0,2.59-1.42,2.64-3.11Z"/>
            <path class="cls-2" d="M17.45,14.42c.05-1.69-2.34-2.03-2.64-.3-.3-1.73-2.7-1.39-2.64.3.05,1.69,2.63,3.11,2.64,3.11h0s0,0,0,0h0s0,0,0,0c.01,0,2.59-1.42,2.64-3.11Z"/>
            <path class="cls-2" d="M27.77,14.42c.05-1.69-2.34-2.03-2.64-.3-.3-1.73-2.7-1.39-2.64.3.05,1.69,2.63,3.11,2.64,3.11h0s0,0,0,0h0s0,0,0,0c.01,0,2.59-1.42,2.64-3.11Z"/>
            <path class="cls-2" d="M38.09,14.42c.05-1.69-2.34-2.03-2.64-.3-.3-1.73-2.7-1.39-2.64.3.05,1.69,2.63,3.11,2.64,3.11h0s0,0,0,0h0s0,0,0,0c.01,0,2.59-1.42,2.64-3.11Z"/>
            <path class="cls-2" d="M48.41,14.42c.05-1.69-2.34-2.03-2.64-.3-.3-1.73-2.7-1.39-2.64.3.05,1.69,2.63,3.11,2.64,3.11h0s0,0,0,0h0s0,0,0,0c.01,0,2.59-1.42,2.64-3.11Z"/>
            <path class="cls-2" d="M58.72,14.42c.05-1.69-2.34-2.03-2.64-.3-.3-1.73-2.7-1.39-2.64.3.05,1.69,2.63,3.11,2.64,3.11h0s0,0,0,0h0s0,0,0,0c.01,0,2.59-1.42,2.64-3.11Z"/>
            <path class="cls-2" d="M69.04,14.42c.05-1.69-2.34-2.03-2.64-.3-.3-1.73-2.7-1.39-2.64.3.05,1.69,2.63,3.11,2.64,3.11h0s0,0,0,0h0s0,0,0,0c.01,0,2.59-1.42,2.64-3.11Z"/>
            <path class="cls-2" d="M79.36,14.42c.05-1.69-2.34-2.03-2.64-.3-.3-1.73-2.7-1.39-2.64.3.05,1.69,2.63,3.11,2.64,3.11h0s0,0,0,0h0s0,0,0,0c.01,0,2.59-1.42,2.64-3.11Z"/>
            <path class="cls-2" d="M89.68,14.42c.05-1.69-2.34-2.03-2.64-.3-.3-1.73-2.7-1.39-2.64.3.05,1.69,2.63,3.11,2.64,3.11h0s0,0,0,0h0s0,0,0,0c.01,0,2.59-1.42,2.64-3.11Z"/>
            <path class="cls-2" d="M100,14.42c.05-1.69-2.34-2.03-2.64-.3-.3-1.73-2.7-1.39-2.64.3.05,1.69,2.63,3.11,2.64,3.11h0s0,0,0,0h0s0,0,0,0c.01,0,2.59-1.42,2.64-3.11Z"/>
            <path class="cls-2" d="M110.32,14.42c.05-1.69-2.34-2.03-2.64-.3-.3-1.73-2.7-1.39-2.64.3.05,1.69,2.63,3.11,2.64,3.11h0s0,0,0,0h0s0,0,0,0c.01,0,2.59-1.42,2.64-3.11Z"/>
            <path class="cls-2" d="M120.64,14.42c.05-1.69-2.34-2.03-2.64-.3-.3-1.73-2.7-1.39-2.64.3.05,1.69,2.63,3.11,2.64,3.11h0s0,0,0,0h0s0,0,0,0c.01,0,2.59-1.42,2.64-3.11Z"/>
            <path class="cls-2" d="M130.96,14.42c.05-1.69-2.34-2.03-2.64-.3-.3-1.73-2.7-1.39-2.64.3.05,1.69,2.63,3.11,2.64,3.11h0s0,0,0,0h0s0,0,0,0c.01,0,2.59-1.42,2.64-3.11Z"/>
            <path class="cls-2" d="M141.28,14.42c.05-1.69-2.34-2.03-2.64-.3-.3-1.73-2.7-1.39-2.64.3.05,1.69,2.63,3.11,2.64,3.11h0s0,0,0,0h0s0,0,0,0c.01,0,2.59-1.42,2.64-3.11Z"/>
            <path class="cls-2" d="M151.6,14.42c.05-1.69-2.34-2.03-2.64-.3-.3-1.73-2.7-1.39-2.64.3.05,1.69,2.63,3.11,2.64,3.11h0s0,0,0,0h0s0,0,0,0c.01,0,2.59-1.42,2.64-3.11Z"/>
            <path class="cls-2" d="M161.92,14.42c.05-1.69-2.34-2.03-2.64-.3-.3-1.73-2.7-1.39-2.64.3.05,1.69,2.63,3.11,2.64,3.11h0s0,0,0,0h0s0,0,0,0c.01,0,2.59-1.42,2.64-3.11Z"/>
            <path class="cls-2" d="M172.23,14.42c.05-1.69-2.34-2.03-2.64-.3-.3-1.73-2.7-1.39-2.64.3.05,1.69,2.63,3.11,2.64,3.11h0s0,0,0,0h0s0,0,0,0c.01,0,2.59-1.42,2.64-3.11Z"/>
            <path class="cls-2" d="M182.55,14.42c.05-1.69-2.34-2.03-2.64-.3-.3-1.73-2.7-1.39-2.64.3.05,1.69,2.63,3.11,2.64,3.11h0s0,0,0,0h0s0,0,0,0c.01,0,2.59-1.42,2.64-3.11Z"/>
            <path class="cls-2" d="M192.87,14.42c.05-1.69-2.34-2.03-2.64-.3-.3-1.73-2.7-1.39-2.64.3.05,1.69,2.63,3.11,2.64,3.11h0s0,0,0,0h0s0,0,0,0c.01,0,2.59-1.42,2.64-3.11Z"/>
            <path class="cls-2" d="M203.19,14.42c.05-1.69-2.34-2.03-2.64-.3-.3-1.73-2.7-1.39-2.64.3.05,1.69,2.63,3.11,2.64,3.11h0s0,0,0,0h0s0,0,0,0c.01,0,2.59-1.42,2.64-3.11Z"/>
            <path class="cls-2" d="M213.51,14.42c.05-1.69-2.34-2.03-2.64-.3-.3-1.73-2.7-1.39-2.64.3.05,1.69,2.63,3.11,2.64,3.11h0s0,0,0,0h0s0,0,0,0c.01,0,2.59-1.42,2.64-3.11Z"/>
            <path class="cls-2" d="M223.83,14.42c.05-1.69-2.34-2.03-2.64-.3-.3-1.73-2.7-1.39-2.64.3.05,1.69,2.63,3.11,2.64,3.11h0s0,0,0,0h0s0,0,0,0c.01,0,2.59-1.42,2.64-3.11Z"/>
            <path class="cls-2" d="M234.15,14.42c.05-1.69-2.34-2.03-2.64-.3-.3-1.73-2.7-1.39-2.64.3.05,1.69,2.63,3.11,2.64,3.11h0s0,0,0,0h0s0,0,0,0c.01,0,2.59-1.42,2.64-3.11Z"/>
            <path class="cls-2" d="M244.47,14.42c.05-1.69-2.34-2.03-2.64-.3-.3-1.73-2.7-1.39-2.64.3.05,1.69,2.63,3.11,2.64,3.11h0s0,0,0,0h0s0,0,0,0c.01,0,2.59-1.42,2.64-3.11Z"/>
            <path class="cls-2" d="M254.79,14.42c.05-1.69-2.34-2.03-2.64-.3-.3-1.73-2.7-1.39-2.64.3.05,1.69,2.63,3.11,2.64,3.11h0s0,0,0,0h0s0,0,0,0c.01,0,2.59-1.42,2.64-3.11Z"/>
            <path class="cls-2" d="M265.11,14.42c.05-1.69-2.34-2.03-2.64-.3-.3-1.73-2.7-1.39-2.64.3.05,1.69,2.63,3.11,2.64,3.11h0s0,0,0,0h0s0,0,0,0c.01,0,2.59-1.42,2.64-3.11Z"/>
            <path class="cls-2" d="M275.42,14.42c.05-1.69-2.34-2.03-2.64-.3-.3-1.73-2.7-1.39-2.64.3.05,1.69,2.63,3.11,2.64,3.11h0s0,0,0,0h0s0,0,0,0c.01,0,2.59-1.42,2.64-3.11Z"/>
            <path class="cls-2" d="M285.73,14.42c.05-1.69-2.34-2.03-2.64-.3-.3-1.73-2.7-1.39-2.64.3.05,1.69,2.63,3.11,2.64,3.11h0s0,0,0,0h0s0,0,0,0c.01,0,2.59-1.42,2.64-3.11Z"/>
            <path class="cls-2" d="M296.05,14.42c.05-1.69-2.34-2.03-2.64-.3-.3-1.73-2.7-1.39-2.64.3.05,1.69,2.63,3.11,2.64,3.11h0s0,0,0,0h0s0,0,0,0c.01,0,2.59-1.42,2.64-3.11Z"/>
            <path class="cls-2" d="M306.37,14.42c.05-1.69-2.34-2.03-2.64-.3-.3-1.73-2.7-1.39-2.64.3.05,1.69,2.63,3.11,2.64,3.11h0s0,0,0,0h0s0,0,0,0c.01,0,2.59-1.42,2.64-3.11Z"/>
            <path class="cls-2" d="M316.69,14.42c.05-1.69-2.34-2.03-2.64-.3-.3-1.73-2.7-1.39-2.64.3.05,1.69,2.63,3.11,2.64,3.11h0s0,0,0,0h0s0,0,0,0c.01,0,2.59-1.42,2.64-3.11Z"/>
          </g>
          <g>
            <path class="cls-2" d="M1.9,20.32c.05-1.69-2.34-2.03-2.64-.3-.3-1.73-2.7-1.39-2.64.3.05,1.69,2.63,3.11,2.64,3.11h0s0,0,0,0h0s0,0,0,0c.01,0,2.59-1.42,2.64-3.11Z"/>
            <path class="cls-2" d="M12.21,20.32c.05-1.69-2.34-2.03-2.64-.3-.3-1.73-2.7-1.39-2.64.3.05,1.69,2.63,3.11,2.64,3.11h0s0,0,0,0h0s0,0,0,0c.01,0,2.59-1.42,2.64-3.11Z"/>
            <path class="cls-2" d="M22.53,20.32c.05-1.69-2.34-2.03-2.64-.3-.3-1.73-2.7-1.39-2.64.3.05,1.69,2.63,3.11,2.64,3.11h0s0,0,0,0h0s0,0,0,0c.01,0,2.59-1.42,2.64-3.11Z"/>
            <path class="cls-2" d="M32.85,20.32c.05-1.69-2.34-2.03-2.64-.3-.3-1.73-2.7-1.39-2.64.3.05,1.69,2.63,3.11,2.64,3.11h0s0,0,0,0h0s0,0,0,0c.01,0,2.59-1.42,2.64-3.11Z"/>
            <path class="cls-2" d="M43.17,20.32c.05-1.69-2.34-2.03-2.64-.3-.3-1.73-2.7-1.39-2.64.3.05,1.69,2.63,3.11,2.64,3.11h0s0,0,0,0h0s0,0,0,0c.01,0,2.59-1.42,2.64-3.11Z"/>
            <path class="cls-2" d="M53.49,20.32c.05-1.69-2.34-2.03-2.64-.3-.3-1.73-2.7-1.39-2.64.3.05,1.69,2.63,3.11,2.64,3.11h0s0,0,0,0h0s0,0,0,0c.01,0,2.59-1.42,2.64-3.11Z"/>
            <path class="cls-2" d="M63.81,20.32c.05-1.69-2.34-2.03-2.64-.3-.3-1.73-2.7-1.39-2.64.3.05,1.69,2.63,3.11,2.64,3.11h0s0,0,0,0h0s0,0,0,0c.01,0,2.59-1.42,2.64-3.11Z"/>
            <path class="cls-2" d="M74.13,20.32c.05-1.69-2.34-2.03-2.64-.3-.3-1.73-2.7-1.39-2.64.3.05,1.69,2.63,3.11,2.64,3.11h0s0,0,0,0h0s0,0,0,0c.01,0,2.59-1.42,2.64-3.11Z"/>
            <path class="cls-2" d="M84.45,20.32c.05-1.69-2.34-2.03-2.64-.3-.3-1.73-2.7-1.39-2.64.3.05,1.69,2.63,3.11,2.64,3.11h0s0,0,0,0h0s0,0,0,0c.01,0,2.59-1.42,2.64-3.11Z"/>
            <path class="cls-2" d="M94.77,20.32c.05-1.69-2.34-2.03-2.64-.3-.3-1.73-2.7-1.39-2.64.3.05,1.69,2.63,3.11,2.64,3.11h0s0,0,0,0h0s0,0,0,0c.01,0,2.59-1.42,2.64-3.11Z"/>
            <path class="cls-2" d="M105.09,20.32c.05-1.69-2.34-2.03-2.64-.3-.3-1.73-2.7-1.39-2.64.3.05,1.69,2.63,3.11,2.64,3.11h0s0,0,0,0h0s0,0,0,0c.01,0,2.59-1.42,2.64-3.11Z"/>
            <path class="cls-2" d="M115.41,20.32c.05-1.69-2.34-2.03-2.64-.3-.3-1.73-2.7-1.39-2.64.3.05,1.69,2.63,3.11,2.64,3.11h0s0,0,0,0h0s0,0,0,0c.01,0,2.59-1.42,2.64-3.11Z"/>
            <path class="cls-2" d="M125.72,20.32c.05-1.69-2.34-2.03-2.64-.3-.3-1.73-2.7-1.39-2.64.3.05,1.69,2.63,3.11,2.64,3.11h0s0,0,0,0h0s0,0,0,0c.01,0,2.59-1.42,2.64-3.11Z"/>
            <path class="cls-2" d="M136.04,20.32c.05-1.69-2.34-2.03-2.64-.3-.3-1.73-2.7-1.39-2.64.3.05,1.69,2.63,3.11,2.64,3.11h0s0,0,0,0h0s0,0,0,0c.01,0,2.59-1.42,2.64-3.11Z"/>
            <path class="cls-2" d="M146.36,20.32c.05-1.69-2.34-2.03-2.64-.3-.3-1.73-2.7-1.39-2.64.3.05,1.69,2.63,3.11,2.64,3.11h0s0,0,0,0h0s0,0,0,0c.01,0,2.59-1.42,2.64-3.11Z"/>
            <path class="cls-2" d="M156.68,20.32c.05-1.69-2.34-2.03-2.64-.3-.3-1.73-2.7-1.39-2.64.3.05,1.69,2.63,3.11,2.64,3.11h0s0,0,0,0h0s0,0,0,0c.01,0,2.59-1.42,2.64-3.11Z"/>
            <path class="cls-2" d="M167,20.32c.05-1.69-2.34-2.03-2.64-.3-.3-1.73-2.7-1.39-2.64.3.05,1.69,2.63,3.11,2.64,3.11h0s0,0,0,0h0s0,0,0,0c.01,0,2.59-1.42,2.64-3.11Z"/>
            <path class="cls-2" d="M177.32,20.32c.05-1.69-2.34-2.03-2.64-.3-.3-1.73-2.7-1.39-2.64.3.05,1.69,2.63,3.11,2.64,3.11h0s0,0,0,0h0s0,0,0,0c.01,0,2.59-1.42,2.64-3.11Z"/>
            <path class="cls-2" d="M187.64,20.32c.05-1.69-2.34-2.03-2.64-.3-.3-1.73-2.7-1.39-2.64.3.05,1.69,2.63,3.11,2.64,3.11h0s0,0,0,0h0s0,0,0,0c.01,0,2.59-1.42,2.64-3.11Z"/>
            <path class="cls-2" d="M197.96,20.32c.05-1.69-2.34-2.03-2.64-.3-.3-1.73-2.7-1.39-2.64.3.05,1.69,2.63,3.11,2.64,3.11h0s0,0,0,0h0s0,0,0,0c.01,0,2.59-1.42,2.64-3.11Z"/>
            <path class="cls-2" d="M208.28,20.32c.05-1.69-2.34-2.03-2.64-.3-.3-1.73-2.7-1.39-2.64.3.05,1.69,2.63,3.11,2.64,3.11h0s0,0,0,0h0s0,0,0,0c.01,0,2.59-1.42,2.64-3.11Z"/>
            <path class="cls-2" d="M218.6,20.32c.05-1.69-2.34-2.03-2.64-.3-.3-1.73-2.7-1.39-2.64.3.05,1.69,2.63,3.11,2.64,3.11h0s0,0,0,0h0s0,0,0,0c.01,0,2.59-1.42,2.64-3.11Z"/>
            <path class="cls-2" d="M228.92,20.32c.05-1.69-2.34-2.03-2.64-.3-.3-1.73-2.7-1.39-2.64.3.05,1.69,2.63,3.11,2.64,3.11h0s0,0,0,0h0s0,0,0,0c.01,0,2.59-1.42,2.64-3.11Z"/>
            <path class="cls-2" d="M239.24,20.32c.05-1.69-2.34-2.03-2.64-.3-.3-1.73-2.7-1.39-2.64.3.05,1.69,2.63,3.11,2.64,3.11h0s0,0,0,0h0s0,0,0,0c.01,0,2.59-1.42,2.64-3.11Z"/>
            <path class="cls-2" d="M249.55,20.32c.05-1.69-2.34-2.03-2.64-.3-.3-1.73-2.7-1.39-2.64.3.05,1.69,2.63,3.11,2.64,3.11h0s0,0,0,0h0s0,0,0,0c.01,0,2.59-1.42,2.64-3.11Z"/>
            <path class="cls-2" d="M259.87,20.32c.05-1.69-2.34-2.03-2.64-.3-.3-1.73-2.7-1.39-2.64.3.05,1.69,2.63,3.11,2.64,3.11h0s0,0,0,0h0s0,0,0,0c.01,0,2.59-1.42,2.64-3.11Z"/>
            <path class="cls-2" d="M270.18,20.32c.05-1.69-2.34-2.03-2.64-.3-.3-1.73-2.7-1.39-2.64.3.05,1.69,2.63,3.11,2.64,3.11h0s0,0,0,0h0s0,0,0,0c.01,0,2.59-1.42,2.64-3.11Z"/>
            <path class="cls-2" d="M280.5,20.32c.05-1.69-2.34-2.03-2.64-.3-.3-1.73-2.7-1.39-2.64.3.05,1.69,2.63,3.11,2.64,3.11h0s0,0,0,0h0s0,0,0,0c.01,0,2.59-1.42,2.64-3.11Z"/>
            <path class="cls-2" d="M290.82,20.32c.05-1.69-2.34-2.03-2.64-.3-.3-1.73-2.7-1.39-2.64.3.05,1.69,2.63,3.11,2.64,3.11h0s0,0,0,0h0s0,0,0,0c.01,0,2.59-1.42,2.64-3.11Z"/>
            <path class="cls-2" d="M301.14,20.32c.05-1.69-2.34-2.03-2.64-.3-.3-1.73-2.7-1.39-2.64.3.05,1.69,2.63,3.11,2.64,3.11h0s0,0,0,0h0s0,0,0,0c.01,0,2.59-1.42,2.64-3.11Z"/>
            <path class="cls-2" d="M311.46,20.32c.05-1.69-2.34-2.03-2.64-.3-.3-1.73-2.7-1.39-2.64.3.05,1.69,2.63,3.11,2.64,3.11h0s0,0,0,0h0s0,0,0,0c.01,0,2.59-1.42,2.64-3.11Z"/>
          </g>
          <g>
            <path class="cls-2" d="M7.13,26.61c.05-1.69-2.34-2.03-2.64-.3-.3-1.73-2.7-1.39-2.64.3.05,1.69,2.63,3.11,2.64,3.11h0s0,0,0,0h0s0,0,0,0c.01,0,2.59-1.42,2.64-3.11Z"/>
            <path class="cls-2" d="M17.45,26.61c.05-1.69-2.34-2.03-2.64-.3-.3-1.73-2.7-1.39-2.64.3.05,1.69,2.63,3.11,2.64,3.11h0s0,0,0,0h0s0,0,0,0c.01,0,2.59-1.42,2.64-3.11Z"/>
            <path class="cls-2" d="M27.77,26.61c.05-1.69-2.34-2.03-2.64-.3-.3-1.73-2.7-1.39-2.64.3.05,1.69,2.63,3.11,2.64,3.11h0s0,0,0,0h0s0,0,0,0c.01,0,2.59-1.42,2.64-3.11Z"/>
            <path class="cls-2" d="M38.09,26.61c.05-1.69-2.34-2.03-2.64-.3-.3-1.73-2.7-1.39-2.64.3.05,1.69,2.63,3.11,2.64,3.11h0s0,0,0,0h0s0,0,0,0c.01,0,2.59-1.42,2.64-3.11Z"/>
            <path class="cls-2" d="M48.41,26.61c.05-1.69-2.34-2.03-2.64-.3-.3-1.73-2.7-1.39-2.64.3.05,1.69,2.63,3.11,2.64,3.11h0s0,0,0,0h0s0,0,0,0c.01,0,2.59-1.42,2.64-3.11Z"/>
            <path class="cls-2" d="M58.72,26.61c.05-1.69-2.34-2.03-2.64-.3-.3-1.73-2.7-1.39-2.64.3.05,1.69,2.63,3.11,2.64,3.11h0s0,0,0,0h0s0,0,0,0c.01,0,2.59-1.42,2.64-3.11Z"/>
            <path class="cls-2" d="M69.04,26.61c.05-1.69-2.34-2.03-2.64-.3-.3-1.73-2.7-1.39-2.64.3.05,1.69,2.63,3.11,2.64,3.11h0s0,0,0,0h0s0,0,0,0c.01,0,2.59-1.42,2.64-3.11Z"/>
            <path class="cls-2" d="M79.36,26.61c.05-1.69-2.34-2.03-2.64-.3-.3-1.73-2.7-1.39-2.64.3.05,1.69,2.63,3.11,2.64,3.11h0s0,0,0,0h0s0,0,0,0c.01,0,2.59-1.42,2.64-3.11Z"/>
            <path class="cls-2" d="M89.68,26.61c.05-1.69-2.34-2.03-2.64-.3-.3-1.73-2.7-1.39-2.64.3.05,1.69,2.63,3.11,2.64,3.11h0s0,0,0,0h0s0,0,0,0c.01,0,2.59-1.42,2.64-3.11Z"/>
            <path class="cls-2" d="M100,26.61c.05-1.69-2.34-2.03-2.64-.3-.3-1.73-2.7-1.39-2.64.3.05,1.69,2.63,3.11,2.64,3.11h0s0,0,0,0h0s0,0,0,0c.01,0,2.59-1.42,2.64-3.11Z"/>
            <path class="cls-2" d="M110.32,26.61c.05-1.69-2.34-2.03-2.64-.3-.3-1.73-2.7-1.39-2.64.3.05,1.69,2.63,3.11,2.64,3.11h0s0,0,0,0h0s0,0,0,0c.01,0,2.59-1.42,2.64-3.11Z"/>
            <path class="cls-2" d="M120.64,26.61c.05-1.69-2.34-2.03-2.64-.3-.3-1.73-2.7-1.39-2.64.3.05,1.69,2.63,3.11,2.64,3.11h0s0,0,0,0h0s0,0,0,0c.01,0,2.59-1.42,2.64-3.11Z"/>
            <path class="cls-2" d="M130.96,26.61c.05-1.69-2.34-2.03-2.64-.3-.3-1.73-2.7-1.39-2.64.3.05,1.69,2.63,3.11,2.64,3.11h0s0,0,0,0h0s0,0,0,0c.01,0,2.59-1.42,2.64-3.11Z"/>
            <path class="cls-2" d="M141.28,26.61c.05-1.69-2.34-2.03-2.64-.3-.3-1.73-2.7-1.39-2.64.3.05,1.69,2.63,3.11,2.64,3.11h0s0,0,0,0h0s0,0,0,0c.01,0,2.59-1.42,2.64-3.11Z"/>
            <path class="cls-2" d="M151.6,26.61c.05-1.69-2.34-2.03-2.64-.3-.3-1.73-2.7-1.39-2.64.3.05,1.69,2.63,3.11,2.64,3.11h0s0,0,0,0h0s0,0,0,0c.01,0,2.59-1.42,2.64-3.11Z"/>
            <path class="cls-2" d="M161.92,26.61c.05-1.69-2.34-2.03-2.64-.3-.3-1.73-2.7-1.39-2.64.3.05,1.69,2.63,3.11,2.64,3.11h0s0,0,0,0h0s0,0,0,0c.01,0,2.59-1.42,2.64-3.11Z"/>
            <path class="cls-2" d="M172.23,26.61c.05-1.69-2.34-2.03-2.64-.3-.3-1.73-2.7-1.39-2.64.3.05,1.69,2.63,3.11,2.64,3.11h0s0,0,0,0h0s0,0,0,0c.01,0,2.59-1.42,2.64-3.11Z"/>
            <path class="cls-2" d="M182.55,26.61c.05-1.69-2.34-2.03-2.64-.3-.3-1.73-2.7-1.39-2.64.3.05,1.69,2.63,3.11,2.64,3.11h0s0,0,0,0h0s0,0,0,0c.01,0,2.59-1.42,2.64-3.11Z"/>
            <path class="cls-2" d="M192.87,26.61c.05-1.69-2.34-2.03-2.64-.3-.3-1.73-2.7-1.39-2.64.3.05,1.69,2.63,3.11,2.64,3.11h0s0,0,0,0h0s0,0,0,0c.01,0,2.59-1.42,2.64-3.11Z"/>
            <path class="cls-2" d="M203.19,26.61c.05-1.69-2.34-2.03-2.64-.3-.3-1.73-2.7-1.39-2.64.3.05,1.69,2.63,3.11,2.64,3.11h0s0,0,0,0h0s0,0,0,0c.01,0,2.59-1.42,2.64-3.11Z"/>
            <path class="cls-2" d="M213.51,26.61c.05-1.69-2.34-2.03-2.64-.3-.3-1.73-2.7-1.39-2.64.3.05,1.69,2.63,3.11,2.64,3.11h0s0,0,0,0h0s0,0,0,0c.01,0,2.59-1.42,2.64-3.11Z"/>
            <path class="cls-2" d="M223.83,26.61c.05-1.69-2.34-2.03-2.64-.3-.3-1.73-2.7-1.39-2.64.3.05,1.69,2.63,3.11,2.64,3.11h0s0,0,0,0h0s0,0,0,0c.01,0,2.59-1.42,2.64-3.11Z"/>
            <path class="cls-2" d="M234.15,26.61c.05-1.69-2.34-2.03-2.64-.3-.3-1.73-2.7-1.39-2.64.3.05,1.69,2.63,3.11,2.64,3.11h0s0,0,0,0h0s0,0,0,0c.01,0,2.59-1.42,2.64-3.11Z"/>
            <path class="cls-2" d="M244.47,26.61c.05-1.69-2.34-2.03-2.64-.3-.3-1.73-2.7-1.39-2.64.3.05,1.69,2.63,3.11,2.64,3.11h0s0,0,0,0h0s0,0,0,0c.01,0,2.59-1.42,2.64-3.11Z"/>
            <path class="cls-2" d="M254.79,26.61c.05-1.69-2.34-2.03-2.64-.3-.3-1.73-2.7-1.39-2.64.3.05,1.69,2.63,3.11,2.64,3.11h0s0,0,0,0h0s0,0,0,0c.01,0,2.59-1.42,2.64-3.11Z"/>
            <path class="cls-2" d="M265.11,26.61c.05-1.69-2.34-2.03-2.64-.3-.3-1.73-2.7-1.39-2.64.3.05,1.69,2.63,3.11,2.64,3.11h0s0,0,0,0h0s0,0,0,0c.01,0,2.59-1.42,2.64-3.11Z"/>
            <path class="cls-2" d="M275.42,26.61c.05-1.69-2.34-2.03-2.64-.3-.3-1.73-2.7-1.39-2.64.3.05,1.69,2.63,3.11,2.64,3.11h0s0,0,0,0h0s0,0,0,0c.01,0,2.59-1.42,2.64-3.11Z"/>
            <path class="cls-2" d="M285.73,26.61c.05-1.69-2.34-2.03-2.64-.3-.3-1.73-2.7-1.39-2.64.3.05,1.69,2.63,3.11,2.64,3.11h0s0,0,0,0h0s0,0,0,0c.01,0,2.59-1.42,2.64-3.11Z"/>
            <path class="cls-2" d="M296.05,26.61c.05-1.69-2.34-2.03-2.64-.3-.3-1.73-2.7-1.39-2.64.3.05,1.69,2.63,3.11,2.64,3.11h0s0,0,0,0h0s0,0,0,0c.01,0,2.59-1.42,2.64-3.11Z"/>
            <path class="cls-2" d="M306.37,26.61c.05-1.69-2.34-2.03-2.64-.3-.3-1.73-2.7-1.39-2.64.3.05,1.69,2.63,3.11,2.64,3.11h0s0,0,0,0h0s0,0,0,0c.01,0,2.59-1.42,2.64-3.11Z"/>
            <path class="cls-2" d="M316.69,26.61c.05-1.69-2.34-2.03-2.64-.3-.3-1.73-2.7-1.39-2.64.3.05,1.69,2.63,3.11,2.64,3.11h0s0,0,0,0h0s0,0,0,0c.01,0,2.59-1.42,2.64-3.11Z"/>
          </g>
          <g>
            <path class="cls-2" d="M1.9,32.52c.05-1.69-2.34-2.03-2.64-.3-.3-1.73-2.7-1.39-2.64.3.05,1.69,2.63,3.11,2.64,3.11h0s0,0,0,0h0s0,0,0,0c.01,0,2.59-1.42,2.64-3.11Z"/>
            <path class="cls-2" d="M12.21,32.52c.05-1.69-2.34-2.03-2.64-.3-.3-1.73-2.7-1.39-2.64.3.05,1.69,2.63,3.11,2.64,3.11h0s0,0,0,0h0s0,0,0,0c.01,0,2.59-1.42,2.64-3.11Z"/>
            <path class="cls-2" d="M22.53,32.52c.05-1.69-2.34-2.03-2.64-.3-.3-1.73-2.7-1.39-2.64.3.05,1.69,2.63,3.11,2.64,3.11h0s0,0,0,0h0s0,0,0,0c.01,0,2.59-1.42,2.64-3.11Z"/>
            <path class="cls-2" d="M32.85,32.52c.05-1.69-2.34-2.03-2.64-.3-.3-1.73-2.7-1.39-2.64.3.05,1.69,2.63,3.11,2.64,3.11h0s0,0,0,0h0s0,0,0,0c.01,0,2.59-1.42,2.64-3.11Z"/>
            <path class="cls-2" d="M43.17,32.52c.05-1.69-2.34-2.03-2.64-.3-.3-1.73-2.7-1.39-2.64.3.05,1.69,2.63,3.11,2.64,3.11h0s0,0,0,0h0s0,0,0,0c.01,0,2.59-1.42,2.64-3.11Z"/>
            <path class="cls-2" d="M53.49,32.52c.05-1.69-2.34-2.03-2.64-.3-.3-1.73-2.7-1.39-2.64.3.05,1.69,2.63,3.11,2.64,3.11h0s0,0,0,0h0s0,0,0,0c.01,0,2.59-1.42,2.64-3.11Z"/>
            <path class="cls-2" d="M63.81,32.52c.05-1.69-2.34-2.03-2.64-.3-.3-1.73-2.7-1.39-2.64.3.05,1.69,2.63,3.11,2.64,3.11h0s0,0,0,0h0s0,0,0,0c.01,0,2.59-1.42,2.64-3.11Z"/>
            <path class="cls-2" d="M74.13,32.52c.05-1.69-2.34-2.03-2.64-.3-.3-1.73-2.7-1.39-2.64.3.05,1.69,2.63,3.11,2.64,3.11h0s0,0,0,0h0s0,0,0,0c.01,0,2.59-1.42,2.64-3.11Z"/>
            <path class="cls-2" d="M84.45,32.52c.05-1.69-2.34-2.03-2.64-.3-.3-1.73-2.7-1.39-2.64.3.05,1.69,2.63,3.11,2.64,3.11h0s0,0,0,0h0s0,0,0,0c.01,0,2.59-1.42,2.64-3.11Z"/>
            <path class="cls-2" d="M94.77,32.52c.05-1.69-2.34-2.03-2.64-.3-.3-1.73-2.7-1.39-2.64.3.05,1.69,2.63,3.11,2.64,3.11h0s0,0,0,0h0s0,0,0,0c.01,0,2.59-1.42,2.64-3.11Z"/>
            <path class="cls-2" d="M105.09,32.52c.05-1.69-2.34-2.03-2.64-.3-.3-1.73-2.7-1.39-2.64.3.05,1.69,2.63,3.11,2.64,3.11h0s0,0,0,0h0s0,0,0,0c.01,0,2.59-1.42,2.64-3.11Z"/>
            <path class="cls-2" d="M115.41,32.52c.05-1.69-2.34-2.03-2.64-.3-.3-1.73-2.7-1.39-2.64.3.05,1.69,2.63,3.11,2.64,3.11h0s0,0,0,0h0s0,0,0,0c.01,0,2.59-1.42,2.64-3.11Z"/>
            <path class="cls-2" d="M125.72,32.52c.05-1.69-2.34-2.03-2.64-.3-.3-1.73-2.7-1.39-2.64.3.05,1.69,2.63,3.11,2.64,3.11h0s0,0,0,0h0s0,0,0,0c.01,0,2.59-1.42,2.64-3.11Z"/>
            <path class="cls-2" d="M136.04,32.52c.05-1.69-2.34-2.03-2.64-.3-.3-1.73-2.7-1.39-2.64.3.05,1.69,2.63,3.11,2.64,3.11h0s0,0,0,0h0s0,0,0,0c.01,0,2.59-1.42,2.64-3.11Z"/>
            <path class="cls-2" d="M146.36,32.52c.05-1.69-2.34-2.03-2.64-.3-.3-1.73-2.7-1.39-2.64.3.05,1.69,2.63,3.11,2.64,3.11h0s0,0,0,0h0s0,0,0,0c.01,0,2.59-1.42,2.64-3.11Z"/>
            <path class="cls-2" d="M156.68,32.52c.05-1.69-2.34-2.03-2.64-.3-.3-1.73-2.7-1.39-2.64.3.05,1.69,2.63,3.11,2.64,3.11h0s0,0,0,0h0s0,0,0,0c.01,0,2.59-1.42,2.64-3.11Z"/>
            <path class="cls-2" d="M167,32.52c.05-1.69-2.34-2.03-2.64-.3-.3-1.73-2.7-1.39-2.64.3.05,1.69,2.63,3.11,2.64,3.11h0s0,0,0,0h0s0,0,0,0c.01,0,2.59-1.42,2.64-3.11Z"/>
            <path class="cls-2" d="M177.32,32.52c.05-1.69-2.34-2.03-2.64-.3-.3-1.73-2.7-1.39-2.64.3.05,1.69,2.63,3.11,2.64,3.11h0s0,0,0,0h0s0,0,0,0c.01,0,2.59-1.42,2.64-3.11Z"/>
            <path class="cls-2" d="M187.64,32.52c.05-1.69-2.34-2.03-2.64-.3-.3-1.73-2.7-1.39-2.64.3.05,1.69,2.63,3.11,2.64,3.11h0s0,0,0,0h0s0,0,0,0c.01,0,2.59-1.42,2.64-3.11Z"/>
            <path class="cls-2" d="M197.96,32.52c.05-1.69-2.34-2.03-2.64-.3-.3-1.73-2.7-1.39-2.64.3.05,1.69,2.63,3.11,2.64,3.11h0s0,0,0,0h0s0,0,0,0c.01,0,2.59-1.42,2.64-3.11Z"/>
            <path class="cls-2" d="M208.28,32.52c.05-1.69-2.34-2.03-2.64-.3-.3-1.73-2.7-1.39-2.64.3.05,1.69,2.63,3.11,2.64,3.11h0s0,0,0,0h0s0,0,0,0c.01,0,2.59-1.42,2.64-3.11Z"/>
            <path class="cls-2" d="M218.6,32.52c.05-1.69-2.34-2.03-2.64-.3-.3-1.73-2.7-1.39-2.64.3.05,1.69,2.63,3.11,2.64,3.11h0s0,0,0,0h0s0,0,0,0c.01,0,2.59-1.42,2.64-3.11Z"/>
            <path class="cls-2" d="M228.92,32.52c.05-1.69-2.34-2.03-2.64-.3-.3-1.73-2.7-1.39-2.64.3.05,1.69,2.63,3.11,2.64,3.11h0s0,0,0,0h0s0,0,0,0c.01,0,2.59-1.42,2.64-3.11Z"/>
            <path class="cls-2" d="M239.24,32.52c.05-1.69-2.34-2.03-2.64-.3-.3-1.73-2.7-1.39-2.64.3.05,1.69,2.63,3.11,2.64,3.11h0s0,0,0,0h0s0,0,0,0c.01,0,2.59-1.42,2.64-3.11Z"/>
            <path class="cls-2" d="M249.55,32.52c.05-1.69-2.34-2.03-2.64-.3-.3-1.73-2.7-1.39-2.64.3.05,1.69,2.63,3.11,2.64,3.11h0s0,0,0,0h0s0,0,0,0c.01,0,2.59-1.42,2.64-3.11Z"/>
            <path class="cls-2" d="M259.87,32.52c.05-1.69-2.34-2.03-2.64-.3-.3-1.73-2.7-1.39-2.64.3.05,1.69,2.63,3.11,2.64,3.11h0s0,0,0,0h0s0,0,0,0c.01,0,2.59-1.42,2.64-3.11Z"/>
            <path class="cls-2" d="M270.18,32.52c.05-1.69-2.34-2.03-2.64-.3-.3-1.73-2.7-1.39-2.64.3.05,1.69,2.63,3.11,2.64,3.11h0s0,0,0,0h0s0,0,0,0c.01,0,2.59-1.42,2.64-3.11Z"/>
            <path class="cls-2" d="M280.5,32.52c.05-1.69-2.34-2.03-2.64-.3-.3-1.73-2.7-1.39-2.64.3.05,1.69,2.63,3.11,2.64,3.11h0s0,0,0,0h0s0,0,0,0c.01,0,2.59-1.42,2.64-3.11Z"/>
            <path class="cls-2" d="M290.82,32.52c.05-1.69-2.34-2.03-2.64-.3-.3-1.73-2.7-1.39-2.64.3.05,1.69,2.63,3.11,2.64,3.11h0s0,0,0,0h0s0,0,0,0c.01,0,2.59-1.42,2.64-3.11Z"/>
            <path class="cls-2" d="M301.14,32.52c.05-1.69-2.34-2.03-2.64-.3-.3-1.73-2.7-1.39-2.64.3.05,1.69,2.63,3.11,2.64,3.11h0s0,0,0,0h0s0,0,0,0c.01,0,2.59-1.42,2.64-3.11Z"/>
            <path class="cls-2" d="M311.46,32.52c.05-1.69-2.34-2.03-2.64-.3-.3-1.73-2.7-1.39-2.64.3.05,1.69,2.63,3.11,2.64,3.11h0s0,0,0,0h0s0,0,0,0c.01,0,2.59-1.42,2.64-3.11Z"/>
          </g>
          <g>
            <path class="cls-2" d="M7.13,38.8c.05-1.69-2.34-2.03-2.64-.3-.3-1.73-2.7-1.39-2.64.3.05,1.69,2.63,3.11,2.64,3.11h0s0,0,0,0h0s0,0,0,0c.01,0,2.59-1.42,2.64-3.11Z"/>
            <path class="cls-2" d="M17.45,38.8c.05-1.69-2.34-2.03-2.64-.3-.3-1.73-2.7-1.39-2.64.3.05,1.69,2.63,3.11,2.64,3.11h0s0,0,0,0h0s0,0,0,0c.01,0,2.59-1.42,2.64-3.11Z"/>
            <path class="cls-2" d="M27.77,38.8c.05-1.69-2.34-2.03-2.64-.3-.3-1.73-2.7-1.39-2.64.3.05,1.69,2.63,3.11,2.64,3.11h0s0,0,0,0h0s0,0,0,0c.01,0,2.59-1.42,2.64-3.11Z"/>
            <path class="cls-2" d="M38.09,38.8c.05-1.69-2.34-2.03-2.64-.3-.3-1.73-2.7-1.39-2.64.3.05,1.69,2.63,3.11,2.64,3.11h0s0,0,0,0h0s0,0,0,0c.01,0,2.59-1.42,2.64-3.11Z"/>
            <path class="cls-2" d="M48.41,38.8c.05-1.69-2.34-2.03-2.64-.3-.3-1.73-2.7-1.39-2.64.3.05,1.69,2.63,3.11,2.64,3.11h0s0,0,0,0h0s0,0,0,0c.01,0,2.59-1.42,2.64-3.11Z"/>
            <path class="cls-2" d="M58.72,38.8c.05-1.69-2.34-2.03-2.64-.3-.3-1.73-2.7-1.39-2.64.3.05,1.69,2.63,3.11,2.64,3.11h0s0,0,0,0h0s0,0,0,0c.01,0,2.59-1.42,2.64-3.11Z"/>
            <path class="cls-2" d="M69.04,38.8c.05-1.69-2.34-2.03-2.64-.3-.3-1.73-2.7-1.39-2.64.3.05,1.69,2.63,3.11,2.64,3.11h0s0,0,0,0h0s0,0,0,0c.01,0,2.59-1.42,2.64-3.11Z"/>
            <path class="cls-2" d="M79.36,38.8c.05-1.69-2.34-2.03-2.64-.3-.3-1.73-2.7-1.39-2.64.3.05,1.69,2.63,3.11,2.64,3.11h0s0,0,0,0h0s0,0,0,0c.01,0,2.59-1.42,2.64-3.11Z"/>
            <path class="cls-2" d="M89.68,38.8c.05-1.69-2.34-2.03-2.64-.3-.3-1.73-2.7-1.39-2.64.3.05,1.69,2.63,3.11,2.64,3.11h0s0,0,0,0h0s0,0,0,0c.01,0,2.59-1.42,2.64-3.11Z"/>
            <path class="cls-2" d="M100,38.8c.05-1.69-2.34-2.03-2.64-.3-.3-1.73-2.7-1.39-2.64.3.05,1.69,2.63,3.11,2.64,3.11h0s0,0,0,0h0s0,0,0,0c.01,0,2.59-1.42,2.64-3.11Z"/>
            <path class="cls-2" d="M110.32,38.8c.05-1.69-2.34-2.03-2.64-.3-.3-1.73-2.7-1.39-2.64.3.05,1.69,2.63,3.11,2.64,3.11h0s0,0,0,0h0s0,0,0,0c.01,0,2.59-1.42,2.64-3.11Z"/>
            <path class="cls-2" d="M120.64,38.8c.05-1.69-2.34-2.03-2.64-.3-.3-1.73-2.7-1.39-2.64.3.05,1.69,2.63,3.11,2.64,3.11h0s0,0,0,0h0s0,0,0,0c.01,0,2.59-1.42,2.64-3.11Z"/>
            <path class="cls-2" d="M130.96,38.8c.05-1.69-2.34-2.03-2.64-.3-.3-1.73-2.7-1.39-2.64.3.05,1.69,2.63,3.11,2.64,3.11h0s0,0,0,0h0s0,0,0,0c.01,0,2.59-1.42,2.64-3.11Z"/>
            <path class="cls-2" d="M141.28,38.8c.05-1.69-2.34-2.03-2.64-.3-.3-1.73-2.7-1.39-2.64.3.05,1.69,2.63,3.11,2.64,3.11h0s0,0,0,0h0s0,0,0,0c.01,0,2.59-1.42,2.64-3.11Z"/>
            <path class="cls-2" d="M151.6,38.8c.05-1.69-2.34-2.03-2.64-.3-.3-1.73-2.7-1.39-2.64.3.05,1.69,2.63,3.11,2.64,3.11h0s0,0,0,0h0s0,0,0,0c.01,0,2.59-1.42,2.64-3.11Z"/>
            <path class="cls-2" d="M161.92,38.8c.05-1.69-2.34-2.03-2.64-.3-.3-1.73-2.7-1.39-2.64.3.05,1.69,2.63,3.11,2.64,3.11h0s0,0,0,0h0s0,0,0,0c.01,0,2.59-1.42,2.64-3.11Z"/>
            <path class="cls-2" d="M172.23,38.8c.05-1.69-2.34-2.03-2.64-.3-.3-1.73-2.7-1.39-2.64.3.05,1.69,2.63,3.11,2.64,3.11h0s0,0,0,0h0s0,0,0,0c.01,0,2.59-1.42,2.64-3.11Z"/>
            <path class="cls-2" d="M182.55,38.8c.05-1.69-2.34-2.03-2.64-.3-.3-1.73-2.7-1.39-2.64.3.05,1.69,2.63,3.11,2.64,3.11h0s0,0,0,0h0s0,0,0,0c.01,0,2.59-1.42,2.64-3.11Z"/>
            <path class="cls-2" d="M192.87,38.8c.05-1.69-2.34-2.03-2.64-.3-.3-1.73-2.7-1.39-2.64.3.05,1.69,2.63,3.11,2.64,3.11h0s0,0,0,0h0s0,0,0,0c.01,0,2.59-1.42,2.64-3.11Z"/>
            <path class="cls-2" d="M203.19,38.8c.05-1.69-2.34-2.03-2.64-.3-.3-1.73-2.7-1.39-2.64.3.05,1.69,2.63,3.11,2.64,3.11h0s0,0,0,0h0s0,0,0,0c.01,0,2.59-1.42,2.64-3.11Z"/>
            <path class="cls-2" d="M213.51,38.8c.05-1.69-2.34-2.03-2.64-.3-.3-1.73-2.7-1.39-2.64.3.05,1.69,2.63,3.11,2.64,3.11h0s0,0,0,0h0s0,0,0,0c.01,0,2.59-1.42,2.64-3.11Z"/>
            <path class="cls-2" d="M223.83,38.8c.05-1.69-2.34-2.03-2.64-.3-.3-1.73-2.7-1.39-2.64.3.05,1.69,2.63,3.11,2.64,3.11h0s0,0,0,0h0s0,0,0,0c.01,0,2.59-1.42,2.64-3.11Z"/>
            <path class="cls-2" d="M234.15,38.8c.05-1.69-2.34-2.03-2.64-.3-.3-1.73-2.7-1.39-2.64.3.05,1.69,2.63,3.11,2.64,3.11h0s0,0,0,0h0s0,0,0,0c.01,0,2.59-1.42,2.64-3.11Z"/>
            <path class="cls-2" d="M244.47,38.8c.05-1.69-2.34-2.03-2.64-.3-.3-1.73-2.7-1.39-2.64.3.05,1.69,2.63,3.11,2.64,3.11h0s0,0,0,0h0s0,0,0,0c.01,0,2.59-1.42,2.64-3.11Z"/>
            <path class="cls-2" d="M254.79,38.8c.05-1.69-2.34-2.03-2.64-.3-.3-1.73-2.7-1.39-2.64.3.05,1.69,2.63,3.11,2.64,3.11h0s0,0,0,0h0s0,0,0,0c.01,0,2.59-1.42,2.64-3.11Z"/>
            <path class="cls-2" d="M265.11,38.8c.05-1.69-2.34-2.03-2.64-.3-.3-1.73-2.7-1.39-2.64.3.05,1.69,2.63,3.11,2.64,3.11h0s0,0,0,0h0s0,0,0,0c.01,0,2.59-1.42,2.64-3.11Z"/>
            <path class="cls-2" d="M275.42,38.8c.05-1.69-2.34-2.03-2.64-.3-.3-1.73-2.7-1.39-2.64.3.05,1.69,2.63,3.11,2.64,3.11h0s0,0,0,0h0s0,0,0,0c.01,0,2.59-1.42,2.64-3.11Z"/>
            <path class="cls-2" d="M285.73,38.8c.05-1.69-2.34-2.03-2.64-.3-.3-1.73-2.7-1.39-2.64.3.05,1.69,2.63,3.11,2.64,3.11h0s0,0,0,0h0s0,0,0,0c.01,0,2.59-1.42,2.64-3.11Z"/>
            <path class="cls-2" d="M296.05,38.8c.05-1.69-2.34-2.03-2.64-.3-.3-1.73-2.7-1.39-2.64.3.05,1.69,2.63,3.11,2.64,3.11h0s0,0,0,0h0s0,0,0,0c.01,0,2.59-1.42,2.64-3.11Z"/>
            <path class="cls-2" d="M306.37,38.8c.05-1.69-2.34-2.03-2.64-.3-.3-1.73-2.7-1.39-2.64.3.05,1.69,2.63,3.11,2.64,3.11h0s0,0,0,0h0s0,0,0,0c.01,0,2.59-1.42,2.64-3.11Z"/>
            <path class="cls-2" d="M316.69,38.8c.05-1.69-2.34-2.03-2.64-.3-.3-1.73-2.7-1.39-2.64.3.05,1.69,2.63,3.11,2.64,3.11h0s0,0,0,0h0s0,0,0,0c.01,0,2.59-1.42,2.64-3.11Z"/>
          </g>
          <g>
            <path class="cls-2" d="M1.9,44.71c.05-1.69-2.34-2.03-2.64-.3-.3-1.73-2.7-1.39-2.64.3.05,1.69,2.63,3.11,2.64,3.11h0s0,0,0,0h0s0,0,0,0c.01,0,2.59-1.42,2.64-3.11Z"/>
            <path class="cls-2" d="M12.21,44.71c.05-1.69-2.34-2.03-2.64-.3-.3-1.73-2.7-1.39-2.64.3.05,1.69,2.63,3.11,2.64,3.11h0s0,0,0,0h0s0,0,0,0c.01,0,2.59-1.42,2.64-3.11Z"/>
            <path class="cls-2" d="M22.53,44.71c.05-1.69-2.34-2.03-2.64-.3-.3-1.73-2.7-1.39-2.64.3.05,1.69,2.63,3.11,2.64,3.11h0s0,0,0,0h0s0,0,0,0c.01,0,2.59-1.42,2.64-3.11Z"/>
            <path class="cls-2" d="M32.85,44.71c.05-1.69-2.34-2.03-2.64-.3-.3-1.73-2.7-1.39-2.64.3.05,1.69,2.63,3.11,2.64,3.11h0s0,0,0,0h0s0,0,0,0c.01,0,2.59-1.42,2.64-3.11Z"/>
            <path class="cls-2" d="M43.17,44.71c.05-1.69-2.34-2.03-2.64-.3-.3-1.73-2.7-1.39-2.64.3.05,1.69,2.63,3.11,2.64,3.11h0s0,0,0,0h0s0,0,0,0c.01,0,2.59-1.42,2.64-3.11Z"/>
            <path class="cls-2" d="M53.49,44.71c.05-1.69-2.34-2.03-2.64-.3-.3-1.73-2.7-1.39-2.64.3.05,1.69,2.63,3.11,2.64,3.11h0s0,0,0,0h0s0,0,0,0c.01,0,2.59-1.42,2.64-3.11Z"/>
            <path class="cls-2" d="M63.81,44.71c.05-1.69-2.34-2.03-2.64-.3-.3-1.73-2.7-1.39-2.64.3.05,1.69,2.63,3.11,2.64,3.11h0s0,0,0,0h0s0,0,0,0c.01,0,2.59-1.42,2.64-3.11Z"/>
            <path class="cls-2" d="M74.13,44.71c.05-1.69-2.34-2.03-2.64-.3-.3-1.73-2.7-1.39-2.64.3.05,1.69,2.63,3.11,2.64,3.11h0s0,0,0,0h0s0,0,0,0c.01,0,2.59-1.42,2.64-3.11Z"/>
            <path class="cls-2" d="M84.45,44.71c.05-1.69-2.34-2.03-2.64-.3-.3-1.73-2.7-1.39-2.64.3.05,1.69,2.63,3.11,2.64,3.11h0s0,0,0,0h0s0,0,0,0c.01,0,2.59-1.42,2.64-3.11Z"/>
            <path class="cls-2" d="M94.77,44.71c.05-1.69-2.34-2.03-2.64-.3-.3-1.73-2.7-1.39-2.64.3.05,1.69,2.63,3.11,2.64,3.11h0s0,0,0,0h0s0,0,0,0c.01,0,2.59-1.42,2.64-3.11Z"/>
            <path class="cls-2" d="M105.09,44.71c.05-1.69-2.34-2.03-2.64-.3-.3-1.73-2.7-1.39-2.64.3.05,1.69,2.63,3.11,2.64,3.11h0s0,0,0,0h0s0,0,0,0c.01,0,2.59-1.42,2.64-3.11Z"/>
            <path class="cls-2" d="M115.41,44.71c.05-1.69-2.34-2.03-2.64-.3-.3-1.73-2.7-1.39-2.64.3.05,1.69,2.63,3.11,2.64,3.11h0s0,0,0,0h0s0,0,0,0c.01,0,2.59-1.42,2.64-3.11Z"/>
            <path class="cls-2" d="M125.72,44.71c.05-1.69-2.34-2.03-2.64-.3-.3-1.73-2.7-1.39-2.64.3.05,1.69,2.63,3.11,2.64,3.11h0s0,0,0,0h0s0,0,0,0c.01,0,2.59-1.42,2.64-3.11Z"/>
            <path class="cls-2" d="M136.04,44.71c.05-1.69-2.34-2.03-2.64-.3-.3-1.73-2.7-1.39-2.64.3.05,1.69,2.63,3.11,2.64,3.11h0s0,0,0,0h0s0,0,0,0c.01,0,2.59-1.42,2.64-3.11Z"/>
            <path class="cls-2" d="M146.36,44.71c.05-1.69-2.34-2.03-2.64-.3-.3-1.73-2.7-1.39-2.64.3.05,1.69,2.63,3.11,2.64,3.11h0s0,0,0,0h0s0,0,0,0c.01,0,2.59-1.42,2.64-3.11Z"/>
            <path class="cls-2" d="M156.68,44.71c.05-1.69-2.34-2.03-2.64-.3-.3-1.73-2.7-1.39-2.64.3.05,1.69,2.63,3.11,2.64,3.11h0s0,0,0,0h0s0,0,0,0c.01,0,2.59-1.42,2.64-3.11Z"/>
            <path class="cls-2" d="M167,44.71c.05-1.69-2.34-2.03-2.64-.3-.3-1.73-2.7-1.39-2.64.3.05,1.69,2.63,3.11,2.64,3.11h0s0,0,0,0h0s0,0,0,0c.01,0,2.59-1.42,2.64-3.11Z"/>
            <path class="cls-2" d="M177.32,44.71c.05-1.69-2.34-2.03-2.64-.3-.3-1.73-2.7-1.39-2.64.3.05,1.69,2.63,3.11,2.64,3.11h0s0,0,0,0h0s0,0,0,0c.01,0,2.59-1.42,2.64-3.11Z"/>
            <path class="cls-2" d="M187.64,44.71c.05-1.69-2.34-2.03-2.64-.3-.3-1.73-2.7-1.39-2.64.3.05,1.69,2.63,3.11,2.64,3.11h0s0,0,0,0h0s0,0,0,0c.01,0,2.59-1.42,2.64-3.11Z"/>
            <path class="cls-2" d="M197.96,44.71c.05-1.69-2.34-2.03-2.64-.3-.3-1.73-2.7-1.39-2.64.3.05,1.69,2.63,3.11,2.64,3.11h0s0,0,0,0h0s0,0,0,0c.01,0,2.59-1.42,2.64-3.11Z"/>
            <path class="cls-2" d="M208.28,44.71c.05-1.69-2.34-2.03-2.64-.3-.3-1.73-2.7-1.39-2.64.3.05,1.69,2.63,3.11,2.64,3.11h0s0,0,0,0h0s0,0,0,0c.01,0,2.59-1.42,2.64-3.11Z"/>
            <path class="cls-2" d="M218.6,44.71c.05-1.69-2.34-2.03-2.64-.3-.3-1.73-2.7-1.39-2.64.3.05,1.69,2.63,3.11,2.64,3.11h0s0,0,0,0h0s0,0,0,0c.01,0,2.59-1.42,2.64-3.11Z"/>
            <path class="cls-2" d="M228.92,44.71c.05-1.69-2.34-2.03-2.64-.3-.3-1.73-2.7-1.39-2.64.3.05,1.69,2.63,3.11,2.64,3.11h0s0,0,0,0h0s0,0,0,0c.01,0,2.59-1.42,2.64-3.11Z"/>
            <path class="cls-2" d="M239.24,44.71c.05-1.69-2.34-2.03-2.64-.3-.3-1.73-2.7-1.39-2.64.3.05,1.69,2.63,3.11,2.64,3.11h0s0,0,0,0h0s0,0,0,0c.01,0,2.59-1.42,2.64-3.11Z"/>
            <path class="cls-2" d="M249.55,44.71c.05-1.69-2.34-2.03-2.64-.3-.3-1.73-2.7-1.39-2.64.3.05,1.69,2.63,3.11,2.64,3.11h0s0,0,0,0h0s0,0,0,0c.01,0,2.59-1.42,2.64-3.11Z"/>
            <path class="cls-2" d="M259.87,44.71c.05-1.69-2.34-2.03-2.64-.3-.3-1.73-2.7-1.39-2.64.3.05,1.69,2.63,3.11,2.64,3.11h0s0,0,0,0h0s0,0,0,0c.01,0,2.59-1.42,2.64-3.11Z"/>
            <path class="cls-2" d="M270.18,44.71c.05-1.69-2.34-2.03-2.64-.3-.3-1.73-2.7-1.39-2.64.3.05,1.69,2.63,3.11,2.64,3.11h0s0,0,0,0h0s0,0,0,0c.01,0,2.59-1.42,2.64-3.11Z"/>
            <path class="cls-2" d="M280.5,44.71c.05-1.69-2.34-2.03-2.64-.3-.3-1.73-2.7-1.39-2.64.3.05,1.69,2.63,3.11,2.64,3.11h0s0,0,0,0h0s0,0,0,0c.01,0,2.59-1.42,2.64-3.11Z"/>
            <path class="cls-2" d="M290.82,44.71c.05-1.69-2.34-2.03-2.64-.3-.3-1.73-2.7-1.39-2.64.3.05,1.69,2.63,3.11,2.64,3.11h0s0,0,0,0h0s0,0,0,0c.01,0,2.59-1.42,2.64-3.11Z"/>
            <path class="cls-2" d="M301.14,44.71c.05-1.69-2.34-2.03-2.64-.3-.3-1.73-2.7-1.39-2.64.3.05,1.69,2.63,3.11,2.64,3.11h0s0,0,0,0h0s0,0,0,0c.01,0,2.59-1.42,2.64-3.11Z"/>
            <path class="cls-2" d="M311.46,44.71c.05-1.69-2.34-2.03-2.64-.3-.3-1.73-2.7-1.39-2.64.3.05,1.69,2.63,3.11,2.64,3.11h0s0,0,0,0h0s0,0,0,0c.01,0,2.59-1.42,2.64-3.11Z"/>
          </g>
        </g>
      </g>
    </g>
  </g>
</svg>