<?xml version="1.0" encoding="UTF-8"?>
<svg xmlns="http://www.w3.org/2000/svg" xmlns:xlink="http://www.w3.org/1999/xlink" viewBox="0 0 21.9 23.06">
  <defs>
    <style>
      .cls-1 {
        fill: url(#linear-gradient-8);
      }

      .cls-2 {
        fill: url(#linear-gradient-7);
      }

      .cls-3 {
        fill: url(#linear-gradient-5);
      }

      .cls-4 {
        fill: url(#linear-gradient-6);
      }

      .cls-5 {
        fill: url(#linear-gradient-9);
      }

      .cls-6 {
        fill: url(#linear-gradient-4);
      }

      .cls-7 {
        fill: url(#linear-gradient-3);
      }

      .cls-8 {
        fill: url(#linear-gradient-2);
      }

      .cls-9 {
        fill: #fafdff;
      }

      .cls-10 {
        fill: url(#linear-gradient);
      }

      .cls-11 {
        isolation: isolate;
      }

      .cls-12 {
        fill: #4f3e4a;
      }

      .cls-13 {
        fill: url(#linear-gradient-11);
      }

      .cls-13, .cls-14 {
        mix-blend-mode: overlay;
      }

      .cls-15 {
        fill: url(#linear-gradient-10);
      }

      .cls-14 {
        opacity: .76;
      }
    </style>
    <linearGradient id="linear-gradient" x1="7.63" y1="5.66" x2="16.32" y2="20.57" gradientUnits="userSpaceOnUse">
      <stop offset="0" stop-color="#bfdfff"/>
      <stop offset="1" stop-color="#ff96c1"/>
    </linearGradient>
    <linearGradient id="linear-gradient-2" x1=".19" y1="7.74" x2="10.2" y2="24.92" xlink:href="#linear-gradient"/>
    <linearGradient id="linear-gradient-3" x1="5.39" y1="6.89" x2="14.88" y2="23.18" xlink:href="#linear-gradient"/>
    <linearGradient id="linear-gradient-4" x1="15.36" y1="2.97" x2="25.1" y2="19.69" xlink:href="#linear-gradient"/>
    <linearGradient id="linear-gradient-5" x1="11.08" y1="4.96" x2="20.8" y2="21.65" xlink:href="#linear-gradient"/>
    <linearGradient id="linear-gradient-6" x1="2.93" y1="11.55" x2="12.53" y2="37.67" gradientUnits="userSpaceOnUse">
      <stop offset="0" stop-color="#e6f5ff" stop-opacity=".6"/>
      <stop offset=".17" stop-color="#edf7ff" stop-opacity=".42"/>
      <stop offset=".34" stop-color="#f3faff" stop-opacity=".27"/>
      <stop offset=".51" stop-color="#f8fcff" stop-opacity=".15"/>
      <stop offset=".67" stop-color="#fcfdff" stop-opacity=".07"/>
      <stop offset=".83" stop-color="#fefeff" stop-opacity=".02"/>
      <stop offset=".98" stop-color="#fff" stop-opacity="0"/>
    </linearGradient>
    <linearGradient id="linear-gradient-7" x1="6.79" y1="10.13" x2="16.4" y2="36.25" xlink:href="#linear-gradient-6"/>
    <linearGradient id="linear-gradient-8" x1="12.26" y1="8.12" x2="21.86" y2="34.25" xlink:href="#linear-gradient-6"/>
    <linearGradient id="linear-gradient-9" x1="10.72" y1="8.61" x2="21.05" y2="36.72" xlink:href="#linear-gradient-6"/>
    <linearGradient id="linear-gradient-10" x1="17.38" y1="6.24" x2="26.98" y2="32.36" xlink:href="#linear-gradient-6"/>
    <linearGradient id="linear-gradient-11" x1="10.33" y1="9.4" x2="13.55" y2="15.64" gradientUnits="userSpaceOnUse">
      <stop offset=".34" stop-color="#f5fbff" stop-opacity=".9"/>
      <stop offset=".37" stop-color="#f5fbff" stop-opacity=".83"/>
      <stop offset=".46" stop-color="#f8fcff" stop-opacity=".61"/>
      <stop offset=".55" stop-color="#fafdff" stop-opacity=".43"/>
      <stop offset=".64" stop-color="#fbfdff" stop-opacity=".27"/>
      <stop offset=".73" stop-color="#fdfeff" stop-opacity=".15"/>
      <stop offset=".82" stop-color="#fefeff" stop-opacity=".07"/>
      <stop offset=".9" stop-color="#fefeff" stop-opacity=".02"/>
      <stop offset=".98" stop-color="#fff" stop-opacity="0"/>
    </linearGradient>
  </defs>
  <g class="cls-11">
    <g id="Layer_2" data-name="Layer 2">
      <g id="Layer_1-2" data-name="Layer 1">
        <g>
          <path class="cls-12" d="M9.26,16.76s-5.6-.24-5.04-4.4S11.45,3.77,14.91,5.27s2.24,7.93,2.17,8.1-7.81,3.39-7.81,3.39Z"/>
          <g>
            <g>
              <path class="cls-10" d="M10.26,22.54c-2.4,0-3.73-2.68-3.73-4.54,0-.17.01-.33.04-.5.06-.43.11-.89.15-1.35.2-2.04.43-4.35,2.35-6.1.88-.8,1.88-1.18,3.07-1.18,1.58,0,3.33.68,5.35,1.47l.63.25c.45.18.79.35,1.08.54,1.56.98,2.4,2.57,2.12,4.06-.24,1.28-1.27,2.21-2.76,2.5-2.71.52-3.24,1.2-3.85,1.99-.12.15-.24.31-.37.46-1.41,1.6-2.78,2.41-4.09,2.41Z"/>
              <path class="cls-12" d="M12.14,9.38c1.64,0,3.53.81,5.79,1.68.37.14.7.3.98.49,2.69,1.68,2.62,5.02-.45,5.62-3.41.65-3.66,1.64-4.51,2.62-1.42,1.62-2.67,2.23-3.7,2.23-2.04,0-3.21-2.39-3.21-4.02,0-.14.01-.28.03-.41.34-2.34.14-5.15,2.35-7.16.83-.76,1.73-1.05,2.72-1.05M12.14,8.35h0c-1.32,0-2.44.43-3.42,1.32-2.07,1.89-2.31,4.3-2.52,6.43-.04.46-.09.91-.15,1.34-.03.17-.04.36-.04.56,0,2.07,1.51,5.06,4.25,5.06,1.47,0,2.97-.87,4.48-2.58.14-.17.27-.33.39-.49.57-.74,1.02-1.32,3.54-1.8,1.71-.33,2.9-1.42,3.17-2.92.32-1.7-.61-3.5-2.36-4.6-.3-.2-.67-.38-1.15-.57l-.63-.25c-2.07-.81-3.86-1.51-5.54-1.51h0Z"/>
            </g>
            <g>
              <path class="cls-8" d="M4.51,17.31c-1.45,0-3.09-1.29-3.65-2.88-.37-1.05-.55-2.48.07-3.35.31-.44.78-.67,1.35-.67.1,0,.2,0,.3.02,1.71.23,4.26,1.64,4.34,3.9.08,1.94-1.15,2.75-1.89,2.92-.16.04-.33.06-.51.06Z"/>
              <path class="cls-12" d="M2.27,10.93c.07,0,.15,0,.23.02,1.6.22,3.83,1.5,3.89,3.41.07,1.64-.92,2.27-1.49,2.4-.13.03-.26.04-.39.04-1.18,0-2.65-1.08-3.17-2.53-.55-1.54-.44-3.33.93-3.33M2.27,9.89h0c-.74,0-1.37.32-1.77.89-.92,1.3-.33,3.25-.13,3.82.64,1.81,2.46,3.22,4.14,3.22.22,0,.43-.02.63-.07,1.2-.28,2.37-1.45,2.29-3.45-.09-2.58-2.85-4.12-4.79-4.39-.13-.02-.26-.03-.37-.03h0Z"/>
            </g>
            <g>
              <path class="cls-7" d="M6.43,11.9c-.12,0-.23,0-.33-.02-1.64-.23-3.28-2.58-3.51-5.02-.12-1.32.17-2.51.78-3.17.36-.39.82-.6,1.34-.6.55,0,1.13.23,1.75.69,2.29,1.72,3.49,5.01,2.41,6.65-.83,1.28-1.88,1.47-2.43,1.47Z"/>
              <path class="cls-12" d="M4.7,3.6c.41,0,.89.18,1.44.59,2.16,1.61,3.17,4.6,2.29,5.95-.62.95-1.38,1.23-2,1.23-.09,0-.18,0-.27-.02-1.35-.19-2.85-2.3-3.06-4.56-.15-1.68.41-3.2,1.6-3.2M4.7,2.57h0c-.66,0-1.26.27-1.72.77-.71.78-1.04,2.07-.91,3.56.25,2.72,2.06,5.23,3.95,5.49.13.02.27.03.41.03.66,0,1.9-.22,2.87-1.7,1.23-1.88,0-5.45-2.54-7.35-.71-.53-1.4-.8-2.06-.8h0Z"/>
            </g>
            <g>
              <path class="cls-6" d="M17.98,10.11c-.6,0-1.21-.21-1.81-.62-1.87-1.29-1.7-4.19-.99-5.75.31-.68.85-1.06,1.53-1.06,1.04,0,2.11.89,2.78,1.73,1.21,1.53,1.29,3.93.17,5.04-.4.41-1.03.67-1.67.67Z"/>
              <path class="cls-12" d="M16.7,3.19c.76,0,1.69.67,2.37,1.53,1.07,1.36,1.11,3.46.21,4.35-.24.24-.7.52-1.31.52-.44,0-.95-.14-1.52-.53-1.56-1.07-1.47-3.65-.81-5.11.24-.54.62-.76,1.06-.76M16.7,2.16h0c-.88,0-1.61.5-2,1.37-.78,1.72-.95,4.93,1.16,6.39.69.47,1.4.71,2.11.71.78,0,1.55-.31,2.05-.83,1.3-1.28,1.24-3.96-.14-5.71-.96-1.21-2.15-1.93-3.19-1.93h0Z"/>
            </g>
            <g>
              <path class="cls-3" d="M11.59,8.91c-1.97-.05-3.99-2.92-4.09-5.78-.03-.91.17-1.61.61-2.06.34-.36.82-.55,1.37-.55.83,0,1.83.43,2.73,1.19,1.9,1.57,2.9,4.26,2.14,5.74-.48.93-1.45,1.46-2.65,1.46h-.11Z"/>
              <path class="cls-12" d="M9.48,1.03c.72,0,1.61.41,2.4,1.07,1.75,1.45,2.63,3.89,2.01,5.11-.3.58-.96,1.17-2.19,1.17-.03,0-.07,0-.1,0-1.61-.04-3.5-2.58-3.58-5.28-.05-1.48.59-2.08,1.46-2.08M9.48,0h0c-.7,0-1.3.24-1.74.7-.54.56-.8,1.38-.76,2.45.1,3.16,2.33,6.21,4.59,6.27h.13c1.4,0,2.54-.63,3.11-1.73.87-1.72-.17-4.64-2.27-6.38-.99-.83-2.1-1.31-3.06-1.31h0Z"/>
            </g>
          </g>
          <g class="cls-14">
            <path class="cls-4" d="M6.4,14.35c.07,1.64-.92,2.27-1.49,2.4-.24.06-.5.06-.77.01-1.1-.2-2.32-1.19-2.79-2.5-.58-1.63-.43-3.53,1.16-3.32,1.55.21,3.68,1.43,3.88,3.23,0,.06.01.12.01.18Z"/>
            <path class="cls-2" d="M8.44,10.14c-.71,1.08-1.6,1.31-2.27,1.22-.08-.01-.17-.03-.24-.06h-.01c-1.28-.4-2.61-2.39-2.81-4.5-.2-2.26.87-4.23,3.04-2.61.8.6,1.44,1.38,1.88,2.2,0,0,0,.01.01.01.76,1.39.95,2.89.4,3.74Z"/>
            <path class="cls-1" d="M13.89,7.21c-.03.06-.06.11-.1.17-.34.54-1.02,1.04-2.19,1.01-.73-.02-1.53-.55-2.18-1.39-.77-1-1.36-2.41-1.4-3.88-.1-2.7,2.12-2.47,3.86-1.01,1.75,1.45,2.63,3.89,2.01,5.11Z"/>
            <path class="cls-5" d="M17.94,11.06c.37.14.7.3.98.49-1.06,1.61-5.02,6.43-11.88,6.45,0-.14.01-.28.03-.41.34-2.35.14-5.15,2.35-7.16s4.89-.77,8.52.63Z"/>
            <path class="cls-15" d="M19.37,8.98s-.04.06-.08.09c-.41.42-1.47.92-2.83-.01-.11-.08-.21-.15-.3-.24t-.01-.02c-1.23-1.19-1.11-3.5-.5-4.84.66-1.47,2.36-.58,3.43.77,1.04,1.32,1.11,3.33.29,4.26Z"/>
          </g>
          <g>
            <path class="cls-9" d="M6.39,14.17c-.33-.69-.92-1.49-1.94-1.96-1.99-.92-3.62-.96-2.86,1.75.42,1.47,1.58,2.33,2.54,2.8-1.1-.2-2.32-1.19-2.79-2.5-.58-1.63-.43-3.53,1.16-3.32,1.55.21,3.68,1.43,3.88,3.23Z"/>
            <path class="cls-9" d="M8.03,6.39c-.51-.6-1.46-1.58-2.38-1.9-1.34-.45-2.35.95-1.6,3.84.37,1.39,1.15,2.36,1.87,2.98-1.28-.4-2.61-2.39-2.81-4.5-.2-2.26.87-4.23,3.04-2.61.8.6,1.44,1.38,1.88,2.2Z"/>
            <path class="cls-9" d="M13.89,7.21c-.03.06-.06.11-.1.17.07-.44.08-.98-.09-1.59-.41-1.48-3.08-4.75-4.56-3.71-1.05.74-.23,3.47.28,4.91-.77-1-1.36-2.41-1.4-3.88-.1-2.7,2.12-2.47,3.86-1.01,1.75,1.45,2.63,3.89,2.01,5.11Z"/>
            <path class="cls-9" d="M19.37,8.98c.13-.61.19-1.43-.07-2.4-.56-2.19-3-3.78-3.58-1.45-.34,1.34.06,2.73.43,3.66-1.23-1.19-1.11-3.5-.5-4.84.66-1.47,2.36-.58,3.43.77,1.04,1.32,1.11,3.33.29,4.26Z"/>
          </g>
          <path class="cls-13" d="M9.12,21.28s-1.22-.64-1.6-3.08.92-8.4,4.31-8.35,7.7,2,8.38,3.69-.89,2.99-.89,2.99"/>
          <ellipse class="cls-9" cx="11.65" cy="3.23" rx=".64" ry="1.23" transform="translate(.59 8.11) rotate(-39.34)"/>
          <ellipse class="cls-9" cx="11.84" cy="4.86" rx=".32" ry=".54" transform="translate(-.4 8.61) rotate(-39.34)"/>
        </g>
      </g>
    </g>
  </g>
</svg>