<?xml version="1.0" encoding="UTF-8"?>
<svg xmlns="http://www.w3.org/2000/svg" xmlns:xlink="http://www.w3.org/1999/xlink" viewBox="0 0 43.11 31.17">
  <defs>
    <style>
      .cls-1 {
        fill: url(#linear-gradient);
      }

      .cls-2 {
        isolation: isolate;
      }

      .cls-3 {
        fill: #4f3e4a;
      }

      .cls-4 {
        fill: url(#linear-gradient-2);
      }

      .cls-4, .cls-5, .cls-6, .cls-7 {
        mix-blend-mode: overlay;
      }

      .cls-5 {
        fill: url(#linear-gradient-3);
      }

      .cls-6 {
        fill: url(#linear-gradient-4);
      }

      .cls-7 {
        fill: url(#linear-gradient-5);
      }
    </style>
    <linearGradient id="linear-gradient" x1="22.22" y1="16.57" x2="46.76" y2="58.7" gradientUnits="userSpaceOnUse">
      <stop offset="0" stop-color="#bfdfff"/>
      <stop offset="1" stop-color="#ff96c1"/>
    </linearGradient>
    <linearGradient id="linear-gradient-2" x1="17.81" y1="6.12" x2="23.83" y2="21.55" gradientUnits="userSpaceOnUse">
      <stop offset=".34" stop-color="#f5fbff" stop-opacity=".9"/>
      <stop offset=".37" stop-color="#f5fbff" stop-opacity=".83"/>
      <stop offset=".46" stop-color="#f8fcff" stop-opacity=".61"/>
      <stop offset=".55" stop-color="#fafdff" stop-opacity=".43"/>
      <stop offset=".64" stop-color="#fbfdff" stop-opacity=".27"/>
      <stop offset=".73" stop-color="#fdfeff" stop-opacity=".15"/>
      <stop offset=".82" stop-color="#fefeff" stop-opacity=".07"/>
      <stop offset=".9" stop-color="#fefeff" stop-opacity=".02"/>
      <stop offset=".98" stop-color="#fff" stop-opacity="0"/>
    </linearGradient>
    <linearGradient id="linear-gradient-3" x1="21.53" y1="15.38" x2="29.06" y2="29.63" xlink:href="#linear-gradient-2"/>
    <linearGradient id="linear-gradient-4" x1="-132.6" y1="-61.33" x2="-131.74" y2="-59.71" gradientTransform="translate(151.99 75.07)" xlink:href="#linear-gradient-2"/>
    <linearGradient id="linear-gradient-5" x1="-129.76" y1="-60.03" x2="-129.34" y2="-59.23" gradientTransform="translate(152.24 74.18)" xlink:href="#linear-gradient-2"/>
  </defs>
  <g class="cls-2">
    <g id="Layer_2" data-name="Layer 2">
      <g id="Layer_1-2" data-name="Layer 1">
        <g>
          <g>
            <path class="cls-1" d="M8.54,30.7c-1.39,0-2.73-.62-3.58-1.67-.8-.98-1.09-2.26-.81-3.58.4-1.92.1-2.63-.16-3-.27-.39-.69-.64-1.17-.93-.35-.21-.75-.46-1.14-.78-.81-.69-1.25-1.8-1.2-3.06.07-1.66.97-3.22,2.47-4.28.68-.48,1.46-.73,2.32-.73,1.35,0,2.68.58,3.87,1.08.85.37,1.66.71,2.21.71,1.89,0,15.89-5.38,17.23-6.92.64-.74,1.15-1.79,1.65-2.8.67-1.36,1.36-2.77,2.42-3.63.52-.42,1.23-.65,2.04-.65,1.32,0,2.71.59,3.54,1.51.6.67.88,1.46.79,2.28-.09.88-.41,1.7-.7,2.42-.37.93-.69,1.74-.42,2.39.16.38.52.72,1.1,1.04,1.63.91,3.17,1.77,3.55,3.2.26,1-.05,2.18-.98,3.72-.66,1.09-1.64,1.64-2.91,1.64-.29,0-.61-.03-.94-.09-1.35-.25-2.75-.99-3.77-1.52-.52-.27-1.16-.61-1.34-.61-.9.07-11.31,4.35-17.66,7.03-.25.19-.51.85-.81,1.63-.48,1.23-1.14,2.92-2.66,4.41-.4.39-.85.68-1.35.89-.5.2-1.03.3-1.59.3Z"/>
            <path class="cls-3" d="M34.67.94c1.87,0,4.07,1.35,3.87,3.27-.2,1.97-1.67,3.63-1.08,5.04.19.45.59.87,1.31,1.27,2.96,1.65,4.57,2.68,2.4,6.27-.63,1.04-1.53,1.41-2.51,1.41-.28,0-.57-.03-.85-.08-2.17-.41-4.5-2.13-5.19-2.14-1.11,0-17.85,7.07-17.85,7.07-1.08.75-1.13,3.69-3.62,6.13-.36.35-.76.61-1.2.79-.45.18-.93.26-1.41.26-2.25,0-4.52-1.87-3.94-4.69.37-1.79.2-2.74-.24-3.36-.55-.79-1.52-1.06-2.39-1.8-1.58-1.34-1.49-4.66,1.24-6.6.65-.46,1.34-.64,2.05-.64,2.25,0,4.63,1.8,6.08,1.8,1.91,0,16.05-5.32,17.58-7.08,1.53-1.77,2.26-4.95,4.01-6.38.46-.37,1.08-.54,1.74-.54M34.68,0h0c-.92,0-1.73.26-2.34.76-1.13.93-1.85,2.38-2.54,3.79-.51,1.04-.99,2.01-1.59,2.71-1.24,1.43-15.1,6.76-16.87,6.76-.46,0-1.26-.34-2.03-.68-1.22-.53-2.61-1.12-4.05-1.12-.96,0-1.83.27-2.59.81C1.05,14.17.08,15.86,0,17.66c-.06,1.4.44,2.65,1.36,3.43.41.35.83.6,1.2.82.46.27.82.49,1.03.8.13.18.49.69.09,2.64-.3,1.47.02,2.88.91,3.97.94,1.16,2.42,1.85,3.94,1.85.61,0,1.2-.11,1.76-.33.56-.23,1.07-.56,1.51-.99,1.6-1.57,2.28-3.3,2.77-4.57.22-.57.47-1.2.68-1.42,6.09-2.57,15.93-6.62,17.35-6.93.22.07.72.34,1.13.55,1.05.55,2.48,1.29,3.9,1.56.36.07.7.1,1.03.1,1.43,0,2.57-.64,3.31-1.86,1-1.66,1.33-2.96,1.03-4.08-.43-1.62-2.06-2.53-3.77-3.49-.48-.27-.79-.54-.9-.82-.2-.47.09-1.2.42-2.03.3-.75.63-1.6.73-2.55.1-.96-.22-1.87-.91-2.64-.91-1.01-2.44-1.67-3.89-1.67h0Z"/>
          </g>
          <path class="cls-4" d="M38.54,4.21c-.2,1.97-1.67,3.63-1.08,5.04-11.2,8.07-28.27,12.42-33.1,12.93-.55-.79-1.52-1.06-2.39-1.8-1.58-1.34-1.49-4.66,1.24-6.6,2.73-1.94,6.22,1.16,8.13,1.16s16.05-5.32,17.58-7.08c1.53-1.77,2.26-4.95,4.01-6.38s5.88.12,5.61,2.73Z"/>
          <path class="cls-5" d="M41.17,16.79c-.81,1.34-2.06,1.57-3.36,1.33,2.76-.62,4.07-3.37,3.64-4.52-.57-1.53-3.4-2.28-4.34-3.47-.93-1.19-.83-2.98.28-4.87,1.1-1.9.04-3.11-2.64-3.49s-3.91,5.91-5.74,7.3c-1.83,1.38-15.75,6.89-17.79,6.85-2.04-.05-4.68-2.6-7.24-1.71-2.55.9-2.61,4.92-1.12,5.58,1.49.66,3.02,2,2.89,3.74-.13,1.75-1.45,4.3,1.27,5.87.88.5,1.92.63,2.93.57-2.57,1.02-6.06-1.01-5.35-4.43.37-1.79.2-2.74-.24-3.36-.55-.79-1.52-1.06-2.39-1.8-1.58-1.34-1.49-4.66,1.24-6.6,2.73-1.94,6.22,1.16,8.13,1.16s16.05-5.32,17.58-7.08c1.53-1.77,2.26-4.95,4.01-6.38s5.88.12,5.61,2.73c-.2,1.97-1.67,3.63-1.08,5.04.19.45.59.87,1.31,1.27,2.96,1.65,4.57,2.68,2.4,6.27Z"/>
          <ellipse class="cls-6" cx="19.41" cy="13.79" rx="1.92" ry=".87" transform="translate(-3.21 6.35) rotate(-17.19)"/>
          <ellipse class="cls-7" cx="22.49" cy="14.18" rx=".83" ry=".49" transform="translate(-3.19 7.28) rotate(-17.19)"/>
        </g>
      </g>
    </g>
  </g>
</svg>